<?xml version="1.0" standalone="no"?>
<!DOCTYPE svg PUBLIC "-//W3C//DTD SVG 20010904//EN"
 "http://www.w3.org/TR/2001/REC-SVG-20010904/DTD/svg10.dtd">
<svg version="1.0" xmlns="http://www.w3.org/2000/svg"
 width="512.000000pt" height="512.000000pt" viewBox="0 0 512.000000 512.000000"
 preserveAspectRatio="xMidYMid meet">
<metadata>
Created by potrace 1.14, written by Peter Selinger 2001-2017
</metadata>
<g transform="translate(0.000000,512.000000) scale(0.100000,-0.100000)"
fill="#000000" stroke="none">
<path d="M1632 4212 c-15 -13 -38 -33 -52 -44 -14 -12 -54 -47 -90 -77 -35
-31 -80 -69 -100 -86 -192 -164 -279 -340 -275 -550 2 -73 10 -139 19 -154 2
-3 358 -6 790 -6 519 0 786 -3 787 -10 0 -5 2 -23 3 -40 7 -76 18 -215 21
-260 2 -27 7 -79 10 -115 3 -36 8 -92 11 -125 2 -33 6 -87 9 -120 3 -33 7 -91
10 -130 3 -38 8 -90 10 -115 4 -41 13 -148 20 -240 1 -19 3 -36 4 -38 1 -5 44
29 101 80 26 24 58 52 71 63 13 12 49 43 79 69 30 27 86 76 124 110 38 34 74
66 80 71 6 6 67 59 136 119 69 60 155 136 192 169 37 32 78 68 90 79 13 10 52
45 88 77 36 32 128 113 205 181 77 67 154 135 171 150 16 15 104 92 195 171
90 79 169 148 175 154 6 5 42 37 80 70 37 33 84 74 103 91 l34 31 -22 84 c-12
46 -26 95 -31 109 -4 14 -21 72 -36 130 -15 58 -31 109 -36 114 -5 6 -566 10
-1478 10 l-1471 1 -27 -23z"/>
<path d="M2289 3007 c-13 -13 -43 -39 -194 -171 -38 -34 -92 -81 -120 -106
-28 -25 -84 -74 -125 -110 -98 -86 -176 -155 -226 -199 -22 -20 -67 -58 -99
-86 -32 -27 -68 -59 -79 -70 -12 -11 -55 -49 -96 -85 -41 -36 -77 -67 -80 -70
-3 -3 -77 -68 -165 -145 -88 -77 -176 -154 -195 -171 -19 -18 -98 -87 -175
-154 -194 -170 -261 -229 -308 -271 l-41 -36 23 -84 c13 -46 32 -115 42 -154
11 -38 23 -83 28 -100 5 -16 14 -48 20 -70 l10 -40 1479 1 1479 0 74 65 c41
35 88 76 104 90 17 15 67 59 113 99 166 146 247 316 246 520 0 75 -11 152 -23
159 -5 4 -361 6 -790 6 -775 0 -781 0 -782 20 0 11 -2 28 -4 38 -2 10 -6 64
-10 120 -4 56 -8 108 -10 117 -2 8 -6 67 -10 130 -4 63 -9 122 -10 131 -2 9
-6 58 -10 110 -3 52 -8 110 -10 129 -2 19 -7 69 -10 110 -12 165 -15 207 -21
245 -7 48 -8 50 -25 32z"/>
</g>
</svg>
