<svg xmlns="http://www.w3.org/2000/svg" width="60" height="60" viewBox="0 0 60 60">
  <g id="remote-icon" transform="translate(-1020 -326)">
    <rect id="Rectangle_6191" data-name="Rectangle 6191" width="60" height="60" rx="6" transform="translate(1020 326)" fill="#fae3d9"/>
    <g id="Group_14450" data-name="Group 14450" transform="translate(611.137 100.249)">
      <path id="Path_1187" data-name="Path 1187" d="M485.486,311.243H457.728c-.006-.121-.017-.242-.017-.363q0-9.793,0-19.585a.582.582,0,0,1,.244-.539q6.767-5.059,13.523-10.133c.03-.023.063-.041.125-.081.1.07.212.145.319.225q6.639,4.979,13.279,9.957a.582.582,0,0,1,.3.513q-.013,9.887-.007,19.773Zm-5.433-4.829,1.2-9.627H461.94l1.2,9.627Zm-7.865-13.872a3.146,3.146,0,0,0,2.417-3.33,3.021,3.021,0,0,0-5.947-.371,2.969,2.969,0,0,0,.4,2.313,3.176,3.176,0,0,0,1.954,1.365c-1.216.023-2.422.018-3.629.025a1.692,1.692,0,0,0-1.7,1.193,11.444,11.444,0,0,0-.173,1.8h12.119c0-.357,0-.694,0-1.031a1.821,1.821,0,0,0-1.979-1.967Q473.922,292.541,472.188,292.543Zm9.657,15.12H461.363v1.164h20.481Z" transform="translate(-32.236 -38.484)" fill="#f54a00" fill-rule="evenodd"/>
      <path id="Path_1188" data-name="Path 1188" d="M456.863,250.591l-1.473,1.964-16.026-12.019-16.028,12.02-1.473-1.963c.112-.091.2-.171.3-.244l16.227-12.173a1.324,1.324,0,0,1,1.934-.009l16.227,12.172C456.65,250.412,456.743,250.493,456.863,250.591Z" transform="translate(0)" fill="#f54a00" fill-rule="evenodd"/>
      <path id="Path_1189" data-name="Path 1189" d="M581.36,473.6a1.81,1.81,0,1,1-1.778-1.823A1.816,1.816,0,0,1,581.36,473.6Z" transform="translate(-140.188 -210.47)" fill="#f54a00" fill-rule="evenodd"/>
    </g>
  </g>
</svg>
