<svg xmlns="http://www.w3.org/2000/svg" width="60" height="60" viewBox="0 0 60 60">
  <g id="flexible-timings-icon" transform="translate(-286 -326)">
    <rect id="Rectangle_6190" data-name="Rectangle 6190" width="60" height="60" rx="6" transform="translate(286 326)" fill="#cbf1f5"/>
    <g id="time-management" transform="translate(295 336)">
      <path id="Path_1202" data-name="Path 1202" d="M9.252,36.063V22.671h6.022a22.57,22.57,0,0,1,7.66,3.45h4.678c2.117.126,3.226,2.274,1.169,3.685-1.641,1.2-3.8,1.134-6.022.934a1.007,1.007,0,1,0,0,1.988c.553.042,1.155-.087,1.683-.087,2.768,0,5.049-.532,6.446-2.719l.7-1.638,6.96-3.45c3.482-1.148,5.956,2.495,3.391,5.028a91.207,91.207,0,0,1-15.5,9.122,10.5,10.5,0,0,1-11.519,0L9.252,36.063ZM31.626.833a11.213,11.213,0,1,1-15.5,10.361A11.394,11.394,0,0,1,23.1.759a11.82,11.82,0,0,1,8.524.073ZM25.614,10.9a1.955,1.955,0,0,1,.493-.385V5.634a.9.9,0,0,1,1.8,0v4.878a1.93,1.93,0,0,1,.777.777h3.7a.9.9,0,0,1,0,1.8h-3.7A1.9,1.9,0,1,1,25.614,10.9Zm8.377-6.183A9.411,9.411,0,0,0,18.8,7.233,9.411,9.411,0,1,0,35.8,7.079a8.666,8.666,0,0,0-1.813-2.365ZM0,21.384H7.439V37.406H0V21.384Z" transform="translate(0 0)" fill="#0493a2" fill-rule="evenodd"/>
    </g>
  </g>
</svg>
