<svg xmlns="http://www.w3.org/2000/svg" width="60" height="60" viewBox="0 0 60 60">
  <g id="stock-icon" transform="translate(-286 -326)">
    <rect id="Rectangle_6190" data-name="Rectangle 6190" width="60" height="60" rx="6" transform="translate(286 326)" fill="#dcedff"/>
    <path id="stock-market" d="M0,6.085a1.934,1.934,0,1,1,3.867,0V30.492H36.825a1.934,1.934,0,1,1,0,3.864H0ZM34.009,2.559a2.135,2.135,0,1,1-1.262,3.861l-4.558,3.47a2.063,2.063,0,0,1,.019.281,2.135,2.135,0,0,1-4.268,0,2.079,2.079,0,0,1,.038-.4l-2.34-1.687h0a4.757,4.757,0,0,1-6.728,0c-.091-.091-.18-.189-.262-.287l-2.388,1.7a2.053,2.053,0,0,1,.107.672,2.132,2.132,0,1,1-2.132-2.135,2.1,2.1,0,0,1,.867.186L13.787,6.3a4.757,4.757,0,1,1,8.829.369l2.337,1.687a2.132,2.132,0,0,1,2.344.06l4.593-3.492a1.945,1.945,0,0,1,0-.237,2.132,2.132,0,0,1,2.132-2.132ZM19.871,3.836c-.606-.066-1.047-.1-1.322-.1a2.545,2.545,0,0,0-.476.013.091.091,0,0,0-.066.091.126.126,0,0,0,.079.11,3.041,3.041,0,0,0,.438.117c.237.054.435.1.587.148a2.987,2.987,0,0,1,.442.173.779.779,0,0,1,.315.249,1.552,1.552,0,0,1,.2.861,1.4,1.4,0,0,1-.391,1.11,1.044,1.044,0,0,1-.871.366v.479H17.774v-.47A4.416,4.416,0,0,1,16.739,6.8l-.2-.044.06-1.139a11.355,11.355,0,0,0,1.615.145.694.694,0,0,0,.262-.035.12.12,0,0,0,.073-.11.1.1,0,0,0-.076-.1,3.785,3.785,0,0,0-.416-.079,2.426,2.426,0,0,1-1.224-.432,1.287,1.287,0,0,1-.315-.981A1.451,1.451,0,0,1,16.9,2.871a1.047,1.047,0,0,1,.883-.341V1.978h1.022v.539a6.081,6.081,0,0,1,.905.123l.211.035ZM18.294.761a3.962,3.962,0,1,1-2.812,1.155A3.962,3.962,0,0,1,18.294.761ZM32.018,11.428h4a.42.42,0,0,1,.42.42v15.56a.423.423,0,0,1-.42.42H32.006a.423.423,0,0,1-.42-.42V11.848a.42.42,0,0,1,.42-.42Zm-7.933,5.327h4a.423.423,0,0,1,.42.42V27.407a.423.423,0,0,1-.42.42h-4a.423.423,0,0,1-.429-.42V17.175a.423.423,0,0,1,.42-.42Zm-7.923-5.327h4a.42.42,0,0,1,.42.42v15.56a.423.423,0,0,1-.42.42h-4a.423.423,0,0,1-.42-.42V11.848A.42.42,0,0,1,16.162,11.428Zm-7.92,6.2h4a.423.423,0,0,1,.42.42v9.359a.423.423,0,0,1-.42.42h-4a.423.423,0,0,1-.42-.42V18.036a.423.423,0,0,1,.42-.407Z" transform="translate(297 339.05)" fill="#0b3c85" fill-rule="evenodd"/>
  </g>
</svg>
