<svg xmlns="http://www.w3.org/2000/svg" width="60" height="60" viewBox="0 0 60 60">
  <g id="growing-company-icon" transform="translate(-285 -326)">
    <rect id="Rectangle_6290" data-name="Rectangle 6290" width="60" height="60" rx="6" transform="translate(285 326)" fill="#fceab5"/>
    <path id="search-company" d="M24.044,36.9H13.872V1.285H33.455V13.1a10.742,10.742,0,0,1,1.285.2V1.129A1.133,1.133,0,0,0,33.612,0h-19.9a1.132,1.132,0,0,0-1.129,1.129V10.75H.945A.951.951,0,0,0,0,11.7v25.85a.643.643,0,0,0,.643.643l24.537-.006-.166-.162a10.651,10.651,0,0,1-.971-1.118Zm-22.758,0V12.036h11.3V36.9H1.285Zm23.867-23a.238.238,0,0,0-.134.2c0,3.648,4.669,3.693,4.671,0a.221.221,0,0,0-.147-.207l-.009,0h0l-.009,0h0l-.009,0h0l-.009,0h0l-.009,0H25.215l-.009,0h0l-.009,0h0l-.009,0h0l-.009,0h0l-.009,0h0l-.009,0h0ZM21.927,28.661H17.7a.245.245,0,0,0-.219.22v3.571a.232.232,0,0,0,.219.221h4.229a.22.22,0,0,0,.19-.109,10.626,10.626,0,0,1-.028-3.819A.242.242,0,0,0,21.927,28.661Zm0-7.388H17.7a.245.245,0,0,0-.219.22v3.571a.232.232,0,0,0,.219.22h4.229a.22.22,0,0,0,.221-.22V21.493A.246.246,0,0,0,21.927,21.273Zm0-7.388H17.7a.246.246,0,0,0-.219.22v3.571a.232.232,0,0,0,.219.221h4.229a.222.222,0,0,0,.221-.221V14.106A.246.246,0,0,0,21.927,13.886ZM9.472,25.341H4.377c-.056,0-.107.043-.107.078v2.093c0,.035.054.078.107.078H9.472c.054,0,.108-.035.108-.078V25.419C9.58,25.376,9.527,25.341,9.472,25.341ZM30.578,4.082H16.748a.52.52,0,0,0-.514.514v5.465a.521.521,0,0,0,.514.514H30.578a.518.518,0,0,0,.514-.514V4.6a.519.519,0,0,0-.514-.514ZM9.472,20.76H4.377c-.056,0-.107.043-.107.078v2.093c0,.035.054.078.107.078H9.472c.054,0,.108-.036.108-.078V20.839c0-.043-.054-.078-.108-.078Zm0-4.58H4.377c-.056,0-.107.043-.107.077v2.094c0,.035.054.077.107.077H9.472c.054,0,.108-.035.108-.077V16.258c0-.043-.054-.077-.108-.077Z" transform="translate(294.801 337)" fill="#674d00" fill-rule="evenodd"/>
    <g id="rocket-launch" transform="translate(313.985 366.549) rotate(-45)">
      <path id="Path_1203" data-name="Path 1203" d="M2.477,13.863a.422.422,0,0,1,.518.665L.868,16.18.852,18.407l2.612-.146,1.418-2.254a.421.421,0,0,1,.712.448L4.067,18.881a.422.422,0,0,1-.341.207l-3.274.185H.428A.42.42,0,0,1,.01,18.85L.031,16a.423.423,0,0,1,.162-.365l2.284-1.776ZM6.452,8.669c1.061-3.171,2.491-5.42,4.5-6.836C13.044.362,15.728-.194,19.245.06a.465.465,0,0,1,.432.455c.341,3.808-.4,6.508-1.974,8.554a14.929,14.929,0,0,1-6.613,4.415V17.2a.465.465,0,0,1-.257.416L7.96,19.4a.466.466,0,0,1-.706-.334h0c-.637-4.864-1.313-5.1-5.29-6.473-.476-.164-.989-.342-1.336-.465a.465.465,0,0,1-.285-.593.494.494,0,0,1,.077-.14l1.9-2.7a.463.463,0,0,1,.4-.2h0l3.734.177Zm8.136-3.583a1.42,1.42,0,1,0,.415,1,1.411,1.411,0,0,0-.415-1Z" transform="translate(0 0)" fill="#674d00"/>
    </g>
  </g>
</svg>
