<svg xmlns="http://www.w3.org/2000/svg" width="25.594" height="24.964" viewBox="0 0 25.594 24.964">
  <path id="github_repository_resource_icon" d="M12.8,0A12.8,12.8,0,0,0,8.76,24.941c.64.117.842-.262.842-.6,0-.3.006-1.154,0-2.222-3.559.774-4.3-1.686-4.3-1.686a3.389,3.389,0,0,0-1.42-1.872c-1.162-.794.087-.778.087-.778A2.69,2.69,0,0,1,5.933,19.1a2.726,2.726,0,0,0,3.723,1.063,2.738,2.738,0,0,1,.814-1.711c-2.842-.323-5.829-1.421-5.829-6.325A4.945,4.945,0,0,1,5.958,8.695a4.594,4.594,0,0,1,.126-3.387S7.158,4.963,9.6,6.62a12.141,12.141,0,0,1,6.408,0c2.444-1.656,3.517-1.313,3.517-1.313a4.6,4.6,0,0,1,.127,3.387,4.944,4.944,0,0,1,1.315,3.434c0,4.917-2.992,6-5.843,6.314A3.027,3.027,0,0,1,16,20.8v3.542c0,.342.206.721.856.6A12.8,12.8,0,0,0,12.8,0Z" transform="translate(-0.008)" fill="#161a1e" fill-rule="evenodd"/>
</svg>
