<svg xmlns="http://www.w3.org/2000/svg" width="25.594" height="25.594" viewBox="0 0 25.594 25.594">
  <path id="linkedin_logo_icon" data-name="linkedin logo_icon" d="M12.8,0A12.8,12.8,0,1,1,0,12.8,12.8,12.8,0,0,1,12.8,0Zm-4,19.989V10H5.474v9.994Zm11.978,0V14.258c0-3.07-1.639-4.5-3.825-4.5a3.3,3.3,0,0,0-2.994,1.65V10H10.634c.044.938,0,9.994,0,9.994h3.322V14.408a2.271,2.271,0,0,1,.11-.811,1.818,1.818,0,0,1,1.7-1.215c1.2,0,1.683.917,1.683,2.26v5.347h3.322ZM7.157,5.176A1.732,1.732,0,1,0,7.113,8.63h.021a1.732,1.732,0,1,0,.023-3.454Z" fill="#161a1e" fill-rule="evenodd"/>
</svg>
