<svg xmlns="http://www.w3.org/2000/svg" width="25.594" height="25.594" viewBox="0 0 25.594 25.594">
  <path id="twitter_logo_icon" data-name="twitter logo_icon" d="M12.8,0A12.8,12.8,0,1,1,0,12.8,12.8,12.8,0,0,1,12.8,0ZM10.543,19.6A8.7,8.7,0,0,0,19.3,10.844c0-.134,0-.268-.006-.4a6.306,6.306,0,0,0,1.539-1.6,6.247,6.247,0,0,1-1.768.485,3.077,3.077,0,0,0,1.353-1.7,6.235,6.235,0,0,1-1.954.747,3.08,3.08,0,0,0-5.324,2.107,2.822,2.822,0,0,0,.083.7A8.733,8.733,0,0,1,6.878,7.971a3.077,3.077,0,0,0,.958,4.105,3.024,3.024,0,0,1-1.392-.383v.038a3.082,3.082,0,0,0,2.471,3.02,3.07,3.07,0,0,1-.811.109,2.936,2.936,0,0,1-.581-.057A3.074,3.074,0,0,0,10.4,16.941a6.188,6.188,0,0,1-3.824,1.315,5.6,5.6,0,0,1-.734-.045A8.577,8.577,0,0,0,10.543,19.6Z" fill="#161a1e" fill-rule="evenodd"/>
</svg>
