<svg xmlns="http://www.w3.org/2000/svg" width="32" height="32" viewBox="0 0 32 32">
  <g id="linkedin-icon" transform="translate(-4 -4)">
    <path id="Path_1207" data-name="Path 1207" d="M20,4A16,16,0,1,0,36,20,16,16,0,0,0,20,4Z" fill="#0288d1"/>
    <path id="Path_1208" data-name="Path 1208" d="M14,17.8h3.2v12H14Zm1.59-1.6h-.018a1.618,1.618,0,1,1,.018,0Zm15.21,6a4.4,4.4,0,0,0-8-2.525V17.8H19.6v12h3.2V23.4a2.4,2.4,0,1,1,4.8,0v6.4h3.2Z" transform="translate(-2 -1.8)" fill="#fff"/>
  </g>
</svg>
