<svg id="icon-3" xmlns="http://www.w3.org/2000/svg" width="37.934" height="41.087" viewBox="0 0 37.934 41.087">
  <path id="Path_856" data-name="Path 856" d="M35.229,23.051A10.864,10.864,0,1,1,17.467,35.306H12.515v2.32H5.126v-2.32H0V32.611H5.126V30.267H7.473V24.96H2.421A2.426,2.426,0,0,1,0,22.543v-8.5a2.4,2.4,0,0,1,.572-1.558A2.4,2.4,0,0,1,0,10.92v-8.5A2.426,2.426,0,0,1,2.421,0H32.868a2.42,2.42,0,0,1,2.417,2.417v8.5a2.418,2.418,0,0,1-.572,1.558,2.4,2.4,0,0,1,.572,1.558v8.5a2.375,2.375,0,0,1-.057.512ZM21.68,29.5h3.564v5.624h4.019V29.5h3.668l-5.621-5.474L21.68,29.5Zm-5.206,3.113a10.893,10.893,0,0,1,1.093-7.65h-7.4v5.31h2.347v2.344h3.962ZM8.821,32.27a1.679,1.679,0,1,1-1.679,1.679A1.68,1.68,0,0,1,8.821,32.27ZM4.738,4.357H6.527V8.988H4.738V4.357ZM29.321,16.872a1.418,1.418,0,0,1,.334,2.8,10.951,10.951,0,0,1,3.925,1.846V14.04a.7.7,0,0,0-.211-.5.716.716,0,0,0-.374-.2c-.043,0-.087,0-.127,0H2.421c-.043,0-.087,0-.127,0a.716.716,0,0,0-.374.2.686.686,0,0,0-.214.5v8.5a.719.719,0,0,0,.712.712h16.24a10.986,10.986,0,0,1,9.85-3.8,1.419,1.419,0,0,1,.813-2.581Zm-5.4,0A1.418,1.418,0,1,1,22.5,18.29a1.418,1.418,0,0,1,1.418-1.418Zm-9.292-.9h1.789v4.631H14.628V15.976Zm-4.945,0h1.789v4.631H9.683V15.976Zm-4.945,0H6.527v4.631H4.738V15.976ZM29.321,5.253A1.418,1.418,0,1,1,27.9,6.671a1.418,1.418,0,0,1,1.418-1.418Zm-5.4,0A1.418,1.418,0,1,1,22.5,6.671a1.418,1.418,0,0,1,1.418-1.418Zm-9.292-.9h1.789V8.988H14.628V4.357Zm-4.945,0h1.789V8.988H9.683V4.357ZM2.29,11.623c.043,0,.087,0,.127,0H32.865c.043,0,.087,0,.127,0a.716.716,0,0,0,.374-.2.708.708,0,0,0,.211-.5v-8.5a.716.716,0,0,0-.211-.5.708.708,0,0,0-.5-.211H2.421a.719.719,0,0,0-.716.716v8.5a.7.7,0,0,0,.211.5.716.716,0,0,0,.374.2Zm30.464,11.4a9.408,9.408,0,0,0-2.12-1.244,9.142,9.142,0,1,0,2.12,1.244Z" transform="translate(0 0)" fill="#f54a00" fill-rule="evenodd"/>
</svg>
