<svg xmlns="http://www.w3.org/2000/svg" width="31.999" height="32.766" viewBox="0 0 31.999 32.766">
  <g id="icon-4" transform="translate(-0.09 979.817)">
    <path id="Path_1176" data-name="Path 1176" d="M13.537-979.786c-4.363.221-8.194,1.315-10.422,2.974a6.216,6.216,0,0,0-1.375,1.378,4.637,4.637,0,0,0-.5,1.047,3.9,3.9,0,0,0-.05,1.235c.412,2.325,3.737,4.346,8.632,5.236a30.234,30.234,0,0,0,3.51.408c.84.053,3.4.02,4.2-.05,4.6-.415,8.217-1.67,10.118-3.513a4.035,4.035,0,0,0,1.1-1.646,3.244,3.244,0,0,0-1.081-3.476c-2.255-2.225-7.3-3.657-12.784-3.624C14.434-979.817,13.821-979.8,13.537-979.786Z" transform="translate(-1.037 0)" fill="#0b3c85"/>
    <path id="Path_1177" data-name="Path 1177" d="M28.818-735.057a3.819,3.819,0,0,1-.616,1.5,7.476,7.476,0,0,1-1.281,1.281c-2.115,1.579-5.547,2.633-9.622,2.958-.907.074-2.887.1-3.811.054a24.487,24.487,0,0,1-7.8-1.542c-2.6-1.037-4.236-2.469-4.56-4-.047-.217-.05-.054-.054,2.115,0,2.539,0,2.553.181,3.041.933,2.486,5.293,4.5,10.823,5.012a24.55,24.55,0,0,0,2.549.12h.927l.154-.3a8.267,8.267,0,0,1,5.554-4.3,9.124,9.124,0,0,1,2.817-.134,8.261,8.261,0,0,1,3.028,1.007l.378.217.224-.234a4.357,4.357,0,0,0,1.037-1.726,10.378,10.378,0,0,0,.087-2.392C28.848-734.261,28.838-735.322,28.818-735.057Z" transform="translate(-0.954 -236.532)" fill="#0b3c85"/>
    <path id="Path_1178" data-name="Path 1178" d="M.09-538.161a11.8,11.8,0,0,0,.151,3.152c.572,1.82,2.964,3.446,6.487,4.41a26.854,26.854,0,0,0,5.571.87c.478.03,2.074.047,2.074.023,0,0-.054-.161-.114-.348a9.094,9.094,0,0,1-.345-1.4,7.07,7.07,0,0,1-.06-1.2,6.84,6.84,0,0,1,.137-1.626l.02-.12-.813-.02c-4.962-.137-9.294-1.392-11.563-3.349A4.294,4.294,0,0,1,.224-539.8c-.037-.137-.08-.3-.1-.368S.094-539.559.09-538.161Z" transform="translate(0 -424.934)" fill="#0b3c85"/>
    <path id="Path_1179" data-name="Path 1179" d="M453.231-518.8a6.7,6.7,0,0,0-3.664,1.676,6.706,6.706,0,0,0-2.135,3.807,9.3,9.3,0,0,0-.013,2.3,6.721,6.721,0,0,0,1.81,3.55,6.716,6.716,0,0,0,7.829,1.335l.328-.164.05.077c.03.043,1.054,1.081,2.282,2.309,2.533,2.536,2.389,2.416,2.914,2.419a1.564,1.564,0,0,0,.964-.318,1.852,1.852,0,0,0,.652-.766.984.984,0,0,0,.141-.656.9.9,0,0,0-.084-.529c-.06-.117-.723-.8-2.355-2.432l-2.272-2.268.134-.231a6.69,6.69,0,0,0,.947-3.439,6.721,6.721,0,0,0-3.078-5.648,6.722,6.722,0,0,0-2.73-1.01A9.866,9.866,0,0,0,453.231-518.8Zm1.773,1.92a4.813,4.813,0,0,1,2.459,1.338,4.8,4.8,0,0,1,1.345,2.493,6.521,6.521,0,0,1,0,1.84,4.8,4.8,0,0,1-1.345,2.493,4.8,4.8,0,0,1-2.493,1.345,6.516,6.516,0,0,1-1.857,0,4.912,4.912,0,0,1-2.543-1.4,4.81,4.81,0,0,1-1.258-2.335,6.2,6.2,0,0,1-.05-1.777,4.66,4.66,0,0,1,.408-1.3,4.824,4.824,0,0,1,2.81-2.523,6.049,6.049,0,0,1,.984-.237A8.973,8.973,0,0,1,455-516.884Z" transform="translate(-432.3 -445.558)" fill="#0b3c85"/>
    <path id="Path_1180" data-name="Path 1180" d="M1-342.409l0,2.362.08.318a5.158,5.158,0,0,0,2.5,2.907A16.433,16.433,0,0,0,5.7-335.778a24.96,24.96,0,0,0,7.478,1.5,36.615,36.615,0,0,0,4.316-.067,24.527,24.527,0,0,0,3.346-.512s-.03-.087-.067-.187a1.815,1.815,0,0,1-.094-.412l-.023-.234-.4-.141a8.278,8.278,0,0,1-3.925-2.874l-.191-.258L14.7-338.98a27.327,27.327,0,0,1-3.229-.174A18.188,18.188,0,0,1,2.93-342a4.56,4.56,0,0,1-1.877-2.543C1.01-344.751,1.007-344.574,1-342.409Z" transform="translate(-0.879 -613.957)" fill="#0b3c85"/>
  </g>
</svg>
