<svg xmlns="http://www.w3.org/2000/svg" xmlns:xlink="http://www.w3.org/1999/xlink" width="565.154" height="471.908" viewBox="0 0 565.154 471.908">
  <defs>
    <linearGradient id="linear-gradient" x1="0.595" y1="0.524" x2="0.55" y2="0.38" gradientUnits="objectBoundingBox">
      <stop offset="0" stop-color="#37bdbd"/>
      <stop offset="1" stop-color="#099398"/>
    </linearGradient>
    <linearGradient id="linear-gradient-2" x1="0.76" y1="0.5" x2="0.6" y2="0.5" xlink:href="#linear-gradient"/>
    <linearGradient id="linear-gradient-3" y1="0.5" x2="1" y2="0.5" gradientUnits="objectBoundingBox">
      <stop offset="0" stop-color="#dae0f5"/>
      <stop offset="0.32" stop-color="#e0e5f7"/>
      <stop offset="0.77" stop-color="#f3f5fc"/>
      <stop offset="1" stop-color="#fff"/>
    </linearGradient>
    <linearGradient id="linear-gradient-4" x1="0.641" y1="0.539" x2="0.68" y2="0.622" xlink:href="#linear-gradient"/>
    <linearGradient id="linear-gradient-5" x1="0.5" y1="0" x2="0.5" y2="1" xlink:href="#linear-gradient"/>
    <linearGradient id="linear-gradient-6" x1="0.698" y1="0.909" x2="1.001" y2="-0.053" xlink:href="#linear-gradient"/>
    <linearGradient id="linear-gradient-7" y1="0.5" x2="1" y2="0.5" gradientUnits="objectBoundingBox">
      <stop offset="0.62" stop-color="#bbc0e6"/>
      <stop offset="0.65" stop-color="#b4b9dd"/>
      <stop offset="0.74" stop-color="#a5abcc"/>
    </linearGradient>
    <linearGradient id="linear-gradient-8" y1="0.5" x2="1" y2="0.5" gradientUnits="objectBoundingBox">
      <stop offset="0" stop-color="#182b61"/>
      <stop offset="1" stop-color="#354d92"/>
    </linearGradient>
    <linearGradient id="linear-gradient-9" y1="0.5" x2="1" y2="0.5" gradientUnits="objectBoundingBox">
      <stop offset="0" stop-color="#354d92"/>
      <stop offset="1" stop-color="#182b61"/>
    </linearGradient>
    <linearGradient id="linear-gradient-10" x1="1" y1="0.499" x2="0" y2="0.499" gradientUnits="objectBoundingBox">
      <stop offset="0" stop-color="#362e94"/>
      <stop offset="1" stop-color="#362e94"/>
    </linearGradient>
    <linearGradient id="linear-gradient-11" x1="1" y1="0.5" x2="0" y2="0.5" gradientUnits="objectBoundingBox">
      <stop offset="0" stop-color="#423eaf"/>
      <stop offset="0.38" stop-color="#3d37a3"/>
      <stop offset="1" stop-color="#362e94"/>
    </linearGradient>
    <linearGradient id="linear-gradient-13" y1="0.5" x2="1" y2="0.5" gradientUnits="objectBoundingBox">
      <stop offset="0" stop-color="#d3d8f2"/>
      <stop offset="0.55" stop-color="#eef0fa"/>
      <stop offset="1" stop-color="#fff"/>
    </linearGradient>
    <linearGradient id="linear-gradient-14" x1="0.6" y1="0.649" x2="0.473" y2="0.433" gradientUnits="objectBoundingBox">
      <stop offset="0" stop-color="#c4cae9"/>
      <stop offset="0.29" stop-color="#d1d6ee"/>
      <stop offset="0.83" stop-color="#f3f4fa"/>
      <stop offset="1" stop-color="#fff"/>
    </linearGradient>
    <linearGradient id="linear-gradient-15" x1="0.589" y1="0.69" x2="0.438" y2="0.411" gradientUnits="objectBoundingBox">
      <stop offset="0" stop-color="#c4cae9"/>
      <stop offset="1" stop-color="#fff"/>
    </linearGradient>
    <linearGradient id="linear-gradient-16" x1="0.417" y1="0.531" x2="0.546" y2="0.48" gradientUnits="objectBoundingBox">
      <stop offset="0" stop-color="#e19100"/>
      <stop offset="0.58" stop-color="#f3ac04"/>
      <stop offset="1" stop-color="#fcba06"/>
    </linearGradient>
    <linearGradient id="linear-gradient-18" x1="0.46" y1="0.5" x2="0.628" y2="0.5" gradientUnits="objectBoundingBox">
      <stop offset="0" stop-color="#fc8806"/>
      <stop offset="1" stop-color="#f27220"/>
    </linearGradient>
    <linearGradient id="linear-gradient-19" x1="0.025" y1="0.441" x2="1.011" y2="0.616" gradientUnits="objectBoundingBox">
      <stop offset="0" stop-color="#fcba06"/>
      <stop offset="0.63" stop-color="#e69902"/>
      <stop offset="1" stop-color="#dc8b00"/>
    </linearGradient>
    <linearGradient id="linear-gradient-20" x1="0.001" y1="0.501" x2="1" y2="0.501" gradientUnits="objectBoundingBox">
      <stop offset="0" stop-color="#bbbfe2"/>
      <stop offset="1" stop-color="#ced2f4"/>
    </linearGradient>
    <linearGradient id="linear-gradient-21" y1="0.5" x2="1" y2="0.5" gradientUnits="objectBoundingBox">
      <stop offset="0" stop-color="#a5acd4"/>
      <stop offset="0.63" stop-color="#bec3e7"/>
      <stop offset="1" stop-color="#ced2f4"/>
    </linearGradient>
    <linearGradient id="linear-gradient-22" x1="0" y1="0.5" x2="1" y2="0.5" xlink:href="#linear-gradient-20"/>
    <linearGradient id="linear-gradient-23" x1="0.001" y1="0.5" x2="1.002" y2="0.5" gradientUnits="objectBoundingBox">
      <stop offset="0" stop-color="#a5acd4"/>
      <stop offset="0.52" stop-color="#bcc2e6"/>
      <stop offset="1" stop-color="#ced2f4"/>
    </linearGradient>
    <linearGradient id="linear-gradient-24" x1="0.001" y1="0.5" x2="1" y2="0.5" xlink:href="#linear-gradient-20"/>
    <linearGradient id="linear-gradient-25" x1="0" y1="0.5" x2="1" y2="0.5" xlink:href="#linear-gradient-20"/>
    <linearGradient id="linear-gradient-26" x1="0" y1="0.501" x2="1" y2="0.501" xlink:href="#linear-gradient-20"/>
    <linearGradient id="linear-gradient-27" x1="0.46" y1="0.5" x2="0.628" y2="0.5" xlink:href="#linear-gradient"/>
  </defs>
  <g id="_3rd-banner" data-name="3rd-banner" transform="translate(0 0.001)">
    <path id="Path_890" data-name="Path 890" d="M1.515,127.454l-1.034-1.38c.294-.22,29.976-22.127,63.146-26.08,49.759-5.933,60.294-8.341,60.294-41.475,0-14.093,2.418-22.58,7.849-27.529,8.42-7.672,24.351-6.874,47.7-4.772,38.1,3.43,40.646-9.851,43.35-23.918.139-.729.281-1.463.433-2.192l1.7.337c-.147.729-.286,1.454-.433,2.183-2.73,14.218-5.56,28.889-45.206,25.311-22.889-2.063-38.483-2.874-46.375,4.315-5.04,4.6-7.286,12.69-7.286,26.256,0,34.52-11.808,37.225-61.817,43.188C31.132,105.6,1.8,127.234,1.515,127.454Z" transform="translate(109.04 304.487)" fill="#dae0f5"/>
    <g id="Group_14400" data-name="Group 14400" transform="translate(356.338 47.48)">
      <path id="Path_891" data-name="Path 891" d="M86.933.789c1.32-.933,3.229-.907,5.349.311L172.33,47.228a15.947,15.947,0,0,1,7.2,12.45V170.225c0,2.238-.779,3.819-2.034,4.592h0l-.061.035h-.039l-3.029,1.728h0c1.254-.773,2.038-2.355,2.038-4.588V61.471a15.939,15.939,0,0,0-7.2-12.45L89.183,2.893a5.232,5.232,0,0,0-4.8-.631Z" transform="translate(-13.247 -0.133)" fill="url(#linear-gradient)"/>
      <path id="Path_892" data-name="Path 892" d="M88.745,3.219l80.069,46.128a15.939,15.939,0,0,1,7.2,12.45V172.356c0,4.562-3.242,6.428-7.2,4.147L88.745,130.375a15.934,15.934,0,0,1-7.2-12.446V7.366C81.535,2.8,84.772.933,88.745,3.219Z" transform="translate(-12.809 -0.459)" fill="#f1f1f6"/>
      <path id="Path_893" data-name="Path 893" d="M154.883,81.727,105.517,53.281c-3.462-1.991-6.246-7.322-6.246-11.914v-5.56c0-4.592,2.8-6.7,6.246-4.717L154.883,59.54c3.463,1.987,6.25,7.322,6.25,11.914v5.56C161.133,81.606,158.338,83.732,154.883,81.727Zm7.816,23.989L93.749,65.8A6.288,6.288,0,0,1,90.9,60.879c0-1.814,1.3-2.549,2.848-1.642L162.7,99.15a6.271,6.271,0,0,1,2.848,4.925C165.548,105.889,164.275,106.627,162.7,105.716Zm0,17.284L93.749,83.088A6.287,6.287,0,0,1,90.9,78.163c0-1.814,1.3-2.549,2.848-1.642l68.95,39.912a6.271,6.271,0,0,1,2.848,4.925C165.548,123.173,164.275,123.907,162.7,123Zm0,17.288-68.95-39.916A6.288,6.288,0,0,1,90.9,95.447c0-1.814,1.3-2.549,2.848-1.642l68.95,39.912a6.271,6.271,0,0,1,2.848,4.925C165.548,140.456,164.275,141.186,162.7,140.288Zm0,17.284-68.95-39.916a6.288,6.288,0,0,1-2.848-4.924c0-1.814,1.3-2.549,2.848-1.642L162.7,151a6.281,6.281,0,0,1,2.848,4.924C165.548,157.74,164.275,158.466,162.7,157.572Z" transform="translate(-14.251 -4.79)" fill="#d0d7e9"/>
      <path id="Path_894" data-name="Path 894" d="M.714,41.344a.43.43,0,0,1-.216-.8l2.246-1.3a.432.432,0,1,1,.433.747l-2.246,1.3A.434.434,0,0,1,.714,41.344Zm6.778-3.905a.433.433,0,0,1-.216-.808l4.536-2.592a.434.434,0,1,1,.433.752L7.708,37.383A.434.434,0,0,1,7.492,37.439Zm9.067-5.227a.432.432,0,0,1-.216-.8l4.532-2.613a.432.432,0,1,1,.433.747l-4.531,2.6a.433.433,0,0,1-.216.069Zm9.089-5.223a.432.432,0,0,1-.216-.808l4.532-2.592a.432.432,0,0,1,.433.747L25.865,26.95a.433.433,0,0,1-.238.039Zm9.041-5.214a.432.432,0,0,1-.216-.808L39,18.345a.434.434,0,1,1,.433.752l-4.536,2.592a.434.434,0,0,1-.2.086Zm9.089-5.227a.432.432,0,0,1-.216-.8l4.523-2.609a.432.432,0,1,1,.433.747L43.986,16.5a.433.433,0,0,1-.229.043Zm9.063-5.223a.432.432,0,0,1-.216-.8l4.536-2.614a.432.432,0,0,1,.433.747l-4.536,2.592a.434.434,0,0,1-.238.069Zm9.046-5.231a.432.432,0,0,1-.216-.808l2.251-1.3a.432.432,0,0,1,.433.747L62.1,6.033A.434.434,0,0,1,61.887,6.094Zm33.2,89.634a.432.432,0,0,1-.217-.808l2.246-1.3a.434.434,0,1,1,.433.752l-2.247,1.3a.439.439,0,0,1-.216.057Zm6.782-3.909a.43.43,0,0,1-.217-.8l4.531-2.593a.432.432,0,1,1,.433.748l-4.531,2.587A.436.436,0,0,1,101.866,91.818Zm9.063-5.223a.433.433,0,0,1-.217-.808l4.535-2.592a.432.432,0,1,1,.433.747l-4.536,2.613A.432.432,0,0,1,110.929,86.6Zm9.089-5.223a.432.432,0,0,1-.217-.808l4.532-2.592a.434.434,0,1,1,.432.752l-4.531,2.592a.433.433,0,0,1-.239.073Zm9.067-5.227a.43.43,0,0,1-.217-.8l4.531-2.614a.432.432,0,0,1,.433.747L129.3,76.089a.434.434,0,0,1-.239.056Zm9.024-5.223a.433.433,0,0,1-.217-.808l4.535-2.592a.432.432,0,1,1,.433.747l-4.536,2.613a.43.43,0,0,1-.216.039ZM147.2,65.7a.432.432,0,0,1-.217-.808l4.532-2.613a.434.434,0,1,1,.432.752l-4.531,2.592A.435.435,0,0,1,147.2,65.7Zm9.059-5.227a.432.432,0,0,1-.217-.8l2.251-1.3a.432.432,0,1,1,.432.747l-2.251,1.3A.43.43,0,0,1,156.257,60.473ZM95.084,222a.43.43,0,0,1-.217-.8l2.246-1.3a.432.432,0,1,1,.433.748l-2.247,1.3A.439.439,0,0,1,95.084,222Zm6.782-3.909a.43.43,0,0,1-.217-.8l4.531-2.614a.432.432,0,1,1,.433.747l-4.531,2.593A.445.445,0,0,1,101.866,218.089Zm9.063-5.223a.433.433,0,0,1-.217-.808l4.535-2.592a.432.432,0,1,1,.433.747l-4.536,2.614A.432.432,0,0,1,110.929,212.866Zm9.089-5.223a.432.432,0,0,1-.217-.808l4.532-2.592a.432.432,0,1,1,.432.747l-4.531,2.593a.408.408,0,0,1-.239.06Zm9.067-5.226a.43.43,0,0,1-.217-.8l4.531-2.593a.432.432,0,1,1,.433.748L129.3,202.36a.435.435,0,0,1-.239.057Zm9.024-5.223a.432.432,0,0,1-.217-.8l4.535-2.614a.433.433,0,0,1,.634.484.439.439,0,0,1-.2.264l-4.536,2.614a.43.43,0,0,1-.216.056Zm9.089-5.214a.432.432,0,0,1-.217-.809l4.532-2.592a.432.432,0,1,1,.432.748l-4.531,2.592a.436.436,0,0,1-.217.061Zm9.059-5.232a.433.433,0,0,1-.217-.808l2.251-1.3a.432.432,0,1,1,.432.748l-2.251,1.3a.43.43,0,0,1-.216.061Z" transform="translate(-0.281 -0.72)" fill="#bbc0e6"/>
      <path id="Path_895" data-name="Path 895" d="M139.723,65.323,109.73,48.044a3.533,3.533,0,0,1-1.61-2.778c0-1.024.718-1.439,1.61-.924l29.994,17.28A3.538,3.538,0,0,1,141.33,64.4C141.316,65.423,140.611,65.837,139.723,65.323Zm12.846,7.409-3.973-2.29a3.538,3.538,0,0,1-1.606-2.778c0-1.024.719-1.439,1.606-.924l3.973,2.29a3.534,3.534,0,0,1,1.605,2.778C154.184,72.827,153.465,73.242,152.569,72.732Z" transform="translate(-16.905 -6.914)" fill="#fff"/>
    </g>
    <g id="Group_14401" data-name="Group 14401" transform="translate(236.185 -0.001)">
      <path id="Path_896" data-name="Path 896" d="M100.15,283.673c4.33-2.49,11.409-2.49,15.739,0l88.66,51.031c4.33,2.494,4.33,6.569,0,9.064L158.8,370.1c-4.33,2.486-11.413,2.486-15.743,0L54.39,319.069c-4.33-2.49-4.33-6.565,0-9.063Z" transform="translate(-8.079 -43.441)" fill="#f6f6fb"/>
      <path id="Path_897" data-name="Path 897" d="M54.392,325.071,143.056,376.1c4.33,2.486,11.413,2.486,15.743,0l45.752-26.329c2.083-1.2,3.152-2.758,3.235-4.316v6.954c0,1.64-1.069,3.284-3.243,4.532l-45.752,26.329c-4.33,2.49-11.414,2.49-15.743,0L54.392,332.224c-2.251-1.295-3.317-3.021-3.23-4.722v-6.763C51.244,322.314,52.314,323.876,54.392,325.071Z" transform="translate(-8.081 -49.443)" fill="url(#linear-gradient-2)"/>
      <path id="Path_898" data-name="Path 898" d="M158.653,315.355H116.945c.182,1.48,1.247,2.935,3.2,4.062L169,347.532l-.35.751-8.413,4.838h47.194l8.409-4.838Z" transform="translate(-18.223 -48.613)" fill="url(#linear-gradient-3)"/>
      <path id="Path_899" data-name="Path 899" d="M106.85,299.7a75.166,75.166,0,0,0,3.572-23.981l6.3-3.621c0,1.6,0,4.044-.217,7.122l51.1,29.424c0,5.378,0,21.507-9.9,37.8l-57.2-32.919Z" transform="translate(-15.688 -41.945)" fill="#d0d7e9"/>
      <path id="Path_900" data-name="Path 900" d="M112.205,275.719l57.2,32.924,6.295-3.622L118.5,272.1Z" transform="translate(-17.492 -41.945)" fill="#c6b4bb"/>
      <path id="Path_901" data-name="Path 901" d="M168.128,352.44c9.889-16.289,9.9-32.419,9.9-37.8l6.295-3.622a83.741,83.741,0,0,1-7.793,36.58Z" transform="translate(-26.113 -47.945)" fill="#37bdbd"/>
      <path id="Path_902" data-name="Path 902" d="M176.088,339.2l6.763-3.884a83.529,83.529,0,0,0,2.2-12.134l-6.361,3.657a72.3,72.3,0,0,1-2.6,12.361Z" transform="translate(-27.34 -49.819)" fill="#d8def3"/>
      <path id="Path_903" data-name="Path 903" d="M.23,11.391C.23,6.41,3.772,4.373,8.1,6.863L220.163,128.913c4.33,2.494,7.867,8.606,7.871,13.592V284.2L.235,153.1Z" transform="translate(-0.23 -0.893)" fill="#0a7e82"/>
      <path id="Path_904" data-name="Path 904" d="M17.207,1.057,229.273,123.111c4.329,2.49,7.867,8.6,7.867,13.588v141.7l-8.535,4.908V141.61c0-4.985-3.542-11.1-7.871-13.592L8.673,5.969a6.1,6.1,0,0,0-4.711-.885L10.786,1.2C12.214-.285,14.561-.462,17.207,1.057Z" transform="translate(-0.806 0.001)" fill="url(#linear-gradient-4)"/>
      <path id="Path_905" data-name="Path 905" d="M228.03,311.045v28.647c0,4.985-3.542,7.022-7.871,4.532L8.1,222.171C3.768,219.68.23,213.564.23,208.587V179.941Z" transform="translate(-0.23 -27.738)" fill="#d0d7e9"/>
      <path id="Path_906" data-name="Path 906" d="M269.19,362.691V334.044l8.53-4.912v28.647c0,2.5-.9,4.264-2.339,5.076l-8.178,4.692C268.433,366.644,269.19,364.987,269.19,362.691Z" transform="translate(-41.386 -50.737)" fill="#bbc0e6"/>
      <path id="Path_907" data-name="Path 907" d="M9.535,159.468,221.6,281.517v-141.7L9.531,17.763Z" transform="translate(-1.664 -2.737)" fill="#fff"/>
    </g>
    <g id="Group_14402" data-name="Group 14402" transform="translate(302.962 346.922)">
      <path id="Path_908" data-name="Path 908" d="M67.419,8.045c2.822,1.639,4.439,3.348,4.486,4.922.056,1.739-1.755,3.33-4.862,4.478C54.275,22.466,46.893,27.01,33.2,37.31,27.249,42.044,17.506,43.953,11.55,40.5c-2.779-1.609-4.162-2.417-6.916-4.03A8.292,8.292,0,0,1,.209,29.379,10.108,10.108,0,0,1,4.4,21.288C17.446,10.653,26.211,5.806,38.486,1.127c5.9-2.148,16.061-.57,22.043,2.891Z" transform="translate(-0.182 -0.149)" fill="#f1f1f6"/>
      <path id="Path_909" data-name="Path 909" d="M67.021,19.777C54.253,24.8,46.871,29.342,33.174,39.642c-5.947,4.735-15.689,6.643-21.645,3.187C8.75,41.22,7.366,40.411,4.613,38.8A8.292,8.292,0,0,1,.187,31.711v3.574a5.112,5.112,0,0,0,0,.63v.113h0c.177,2.126,1.647,4.217,4.435,5.839l6.937,4.026c5.956,3.478,15.616,3.478,21.576,0L67.453,25.977c3.025-1.739,4.5-4.056,4.46-6.352h0V15.277C71.957,17.046,70.146,18.629,67.021,19.777Z" transform="translate(-0.178 -2.481)" fill="#099398"/>
      <path id="Path_910" data-name="Path 910" d="M53.126,15.192c-1.361-.783-1.4-1.93-.056-2.4a6.973,6.973,0,0,1,4.953.8c1.223.691,1.3,1.561-.043,2.026A6.809,6.809,0,0,1,53.126,15.192Z" transform="translate(-8.179 -2.07)" fill="#37bdbd"/>
    </g>
    <g id="Group_14403" data-name="Group 14403" transform="translate(1.751 293.705)">
      <path id="Path_911" data-name="Path 911" d="M4.38,45.32c-5.746,3.326-5.746,8.773,0,12.1L29.7,72.073c5.742,3.33,15.156,3.33,20.881,0L76.053,57.332c5.742-3.326,5.742-8.773,0-12.1L50.733,30.574c-5.742-3.326-15.156-3.326-20.881,0Z" transform="translate(-0.07 -4.526)" fill="#099398"/>
      <path id="Path_912" data-name="Path 912" d="M80.362,55.508c0,2.174-1.433,4.386-4.33,6.052L50.561,76.3c-5.742,3.33-15.156,3.33-20.881,0L4.381,61.647c-2.867-1.656-4.3-3.843-4.3-6.03h0v6h0c0,2.174,1.438,4.373,4.3,6.034L29.7,82.3c5.742,3.33,15.156,3.33,20.881,0L76.054,67.559c2.875-1.665,4.33-3.856,4.33-6.052h0v-6Z" transform="translate(-0.071 -8.755)" fill="#56d5d5"/>
      <path id="Path_913" data-name="Path 913" d="M4.38,31.4c-5.746,3.326-5.746,8.773,0,12.1L29.7,58.154c5.742,3.326,15.156,3.326,20.881,0L76.053,43.413c5.742-3.33,5.742-8.777,0-12.107L50.733,16.65c-5.742-3.326-15.156-3.326-20.881,0Z" transform="translate(-0.07 -2.38)" fill="#099398"/>
      <path id="Path_914" data-name="Path 914" d="M80.362,41.585c0,2.2-1.433,4.391-4.33,6.056L50.561,62.383c-5.742,3.326-15.156,3.326-20.881,0L4.381,47.71c-2.867-1.661-4.3-3.847-4.3-6.034h0V47.71h0c0,2.174,1.438,4.373,4.3,6.034L29.7,68.4c5.742,3.326,15.156,3.326,20.881,0L76.054,53.653c2.875-1.661,4.33-3.856,4.33-6.052h0v-6Z" transform="translate(-0.071 -6.608)" fill="#56d5d5"/>
      <path id="Path_915" data-name="Path 915" d="M4.38,17.473c-5.746,3.326-5.746,8.773,0,12.1L29.7,44.231c5.742,3.326,15.156,3.326,20.881,0L76.053,29.489c5.742-3.33,5.742-8.777,0-12.107L50.733,2.731C44.991-.6,35.576-.6,29.852,2.731Z" transform="translate(-0.07 -0.234)" fill="#f6f6fb"/>
      <path id="Path_916" data-name="Path 916" d="M80.362,27.662c0,2.174-1.433,4.391-4.33,6.056L50.561,48.459c-5.742,3.326-15.156,3.326-20.881,0L4.381,33.826c-2.867-1.661-4.3-3.847-4.3-6.034h0v6h0c0,2.174,1.438,4.373,4.3,6.034L29.7,54.481c5.742,3.326,15.156,3.326,20.881,0L76.054,39.734c2.875-1.661,4.33-3.856,4.33-6.052h0v-6Z" transform="translate(-0.071 -4.462)" fill="#56d5d5"/>
    </g>
    <g id="Group_14405" data-name="Group 14405" transform="translate(0 236.072)">
      <path id="Path_917" data-name="Path 917" d="M586.37,130.452,542.539,105.07l43.827-25.378L630.2,105.07Z" transform="translate(-83.636 -12.367)" fill="#f6f6fb"/>
      <path id="Path_918" data-name="Path 918" d="M586.37,185.837l-43.831-25.378V109.695l43.831,25.382Z" transform="translate(-83.636 -16.992)" fill="#37bdbd"/>
      <path id="Path_919" data-name="Path 919" d="M594.358,185.837l43.826-25.378V109.695l-43.826,25.382Z" transform="translate(-91.624 -16.992)" fill="#099398"/>
      <g id="Group_14404" data-name="Group 14404" transform="translate(462.738 71.768)">
        <path id="Path_920" data-name="Path 920" d="M46.969,4.437,43.464,2.408l3.5-2.029L50.47,2.408Z" transform="translate(-6.973 -0.379)" fill="#dae0f5"/>
        <path id="Path_921" data-name="Path 921" d="M56.616,10.024,53.111,7.994l3.505-2.028,3.505,2.028Z" transform="translate(-8.46 -1.24)" fill="#dae0f5"/>
        <path id="Path_922" data-name="Path 922" d="M66.269,15.615l-3.505-2.029,3.505-2.033,3.505,2.033Z" transform="translate(-9.948 -2.101)" fill="#dae0f5"/>
        <path id="Path_923" data-name="Path 923" d="M75.921,21.2l-3.505-2.029,3.505-2.028,3.5,2.028Z" transform="translate(-11.436 -2.963)" fill="#dae0f5"/>
        <path id="Path_924" data-name="Path 924" d="M85.569,26.793l-3.505-2.033,3.505-2.029,3.505,2.029Z" transform="translate(-12.923 -3.825)" fill="#dae0f5"/>
        <path id="Path_925" data-name="Path 925" d="M37.317,10.024,33.812,7.994l3.505-2.028,3.505,2.028Z" transform="translate(-5.485 -1.24)" fill="#dae0f5"/>
        <path id="Path_926" data-name="Path 926" d="M46.969,15.615l-3.505-2.029,3.505-2.033,3.505,2.033Z" transform="translate(-6.973 -2.101)" fill="#dae0f5"/>
        <path id="Path_927" data-name="Path 927" d="M56.616,21.2l-3.505-2.029,3.505-2.028,3.505,2.028Z" transform="translate(-8.46 -2.963)" fill="#dae0f5"/>
        <path id="Path_928" data-name="Path 928" d="M66.269,26.793l-3.505-2.033,3.505-2.029,3.505,2.029Z" transform="translate(-9.948 -3.825)" fill="#dae0f5"/>
        <path id="Path_929" data-name="Path 929" d="M75.921,32.38l-3.505-2.028,3.505-2.029,3.5,2.029Z" transform="translate(-11.436 -4.687)" fill="#dae0f5"/>
        <path id="Path_930" data-name="Path 930" d="M27.664,15.615l-3.505-2.029,3.505-2.033,3.505,2.033Z" transform="translate(-3.997 -2.101)" fill="#dae0f5"/>
        <path id="Path_931" data-name="Path 931" d="M37.317,21.2l-3.505-2.029,3.505-2.028,3.505,2.028Z" transform="translate(-5.485 -2.963)" fill="#dae0f5"/>
        <path id="Path_932" data-name="Path 932" d="M46.969,26.793l-3.505-2.033,3.505-2.029,3.505,2.029Z" transform="translate(-6.973 -3.825)" fill="#dae0f5"/>
        <path id="Path_933" data-name="Path 933" d="M56.616,32.38l-3.505-2.028,3.505-2.029,3.505,2.029Z" transform="translate(-8.46 -4.687)" fill="#dae0f5"/>
        <path id="Path_934" data-name="Path 934" d="M66.269,37.966l-3.505-2.029,3.505-2.029,3.505,2.029Z" transform="translate(-9.948 -5.548)" fill="#dae0f5"/>
        <path id="Path_935" data-name="Path 935" d="M18.017,21.2l-3.505-2.029,3.505-2.028,3.505,2.028Z" transform="translate(-2.509 -2.963)" fill="#dae0f5"/>
        <path id="Path_936" data-name="Path 936" d="M27.664,26.793l-3.505-2.033,3.505-2.029,3.505,2.029Z" transform="translate(-3.997 -3.825)" fill="#dae0f5"/>
        <path id="Path_937" data-name="Path 937" d="M37.317,32.38l-3.505-2.028,3.505-2.029,3.505,2.029Z" transform="translate(-5.485 -4.687)" fill="#dae0f5"/>
        <path id="Path_938" data-name="Path 938" d="M46.969,37.966l-3.505-2.029,3.505-2.029,3.505,2.029Z" transform="translate(-6.973 -5.548)" fill="#dae0f5"/>
        <path id="Path_939" data-name="Path 939" d="M56.616,43.558l-3.505-2.028L56.616,39.5l3.505,2.029Z" transform="translate(-8.46 -6.41)" fill="#dae0f5"/>
        <path id="Path_940" data-name="Path 940" d="M8.364,26.793,4.859,24.759,8.364,22.73l3.506,2.029Z" transform="translate(-1.021 -3.825)" fill="#dae0f5"/>
        <path id="Path_941" data-name="Path 941" d="M18.017,32.38l-3.505-2.028,3.505-2.029,3.505,2.029Z" transform="translate(-2.509 -4.687)" fill="#dae0f5"/>
        <path id="Path_942" data-name="Path 942" d="M27.664,37.966l-3.505-2.029,3.505-2.029,3.505,2.029Z" transform="translate(-3.997 -5.548)" fill="#dae0f5"/>
        <path id="Path_943" data-name="Path 943" d="M37.317,43.558l-3.505-2.028L37.317,39.5l3.505,2.029Z" transform="translate(-5.485 -6.41)" fill="#dae0f5"/>
        <path id="Path_944" data-name="Path 944" d="M46.969,49.144l-3.505-2.029,3.505-2.029,3.505,2.029Z" transform="translate(-6.973 -7.271)" fill="#dae0f5"/>
        <path id="Path_945" data-name="Path 945" d="M3.827,39.1.322,37.069V33.011L3.827,35.04Z" transform="translate(-0.322 -5.409)" fill="#dae0f5"/>
        <path id="Path_946" data-name="Path 946" d="M13.479,44.689,9.974,42.656V38.6l3.505,2.029Z" transform="translate(-1.81 -6.271)" fill="#dae0f5"/>
        <path id="Path_947" data-name="Path 947" d="M23.132,50.276l-3.505-2.028V44.19l3.505,2.028Z" transform="translate(-3.298 -7.133)" fill="#dae0f5"/>
        <path id="Path_948" data-name="Path 948" d="M32.78,55.863l-3.5-2.029V49.776l3.5,2.029Z" transform="translate(-4.786 -7.994)" fill="#dae0f5"/>
        <path id="Path_949" data-name="Path 949" d="M42.432,61.453l-3.505-2.028V55.363L42.432,57.4Z" transform="translate(-6.273 -8.855)" fill="#dae0f5"/>
        <path id="Path_950" data-name="Path 950" d="M3.827,50.276.322,48.248V44.19l3.505,2.028Z" transform="translate(-0.322 -7.133)" fill="#dae0f5"/>
        <path id="Path_951" data-name="Path 951" d="M13.479,55.863,9.974,53.834V49.776l3.505,2.029Z" transform="translate(-1.81 -7.994)" fill="#dae0f5"/>
        <path id="Path_952" data-name="Path 952" d="M23.132,61.453l-3.505-2.028V55.363L23.132,57.4Z" transform="translate(-3.298 -8.855)" fill="#dae0f5"/>
        <path id="Path_953" data-name="Path 953" d="M32.78,67.041l-3.5-2.029V60.954l3.5,2.029Z" transform="translate(-4.786 -9.717)" fill="#dae0f5"/>
        <path id="Path_954" data-name="Path 954" d="M42.432,72.632,38.927,70.6V66.541l3.505,2.028Z" transform="translate(-6.273 -10.578)" fill="#dae0f5"/>
        <path id="Path_955" data-name="Path 955" d="M3.827,61.453.322,59.425V55.363L3.827,57.4Z" transform="translate(-0.322 -8.855)" fill="#dae0f5"/>
        <path id="Path_956" data-name="Path 956" d="M13.479,67.041,9.974,65.012V60.954l3.505,2.029Z" transform="translate(-1.81 -9.717)" fill="#dae0f5"/>
        <path id="Path_957" data-name="Path 957" d="M23.132,72.632,19.627,70.6V66.541l3.505,2.028Z" transform="translate(-3.298 -10.578)" fill="#dae0f5"/>
        <path id="Path_958" data-name="Path 958" d="M32.78,78.219l-3.5-2.029V72.132l3.5,2.029Z" transform="translate(-4.786 -11.44)" fill="#dae0f5"/>
        <path id="Path_959" data-name="Path 959" d="M42.432,83.8l-3.505-2.028V77.719l3.505,2.028Z" transform="translate(-6.273 -12.301)" fill="#dae0f5"/>
        <path id="Path_960" data-name="Path 960" d="M3.827,72.632.322,70.6V66.541l3.505,2.028Z" transform="translate(-0.322 -10.578)" fill="#dae0f5"/>
        <path id="Path_961" data-name="Path 961" d="M13.479,78.219,9.974,76.19V72.132l3.505,2.029Z" transform="translate(-1.81 -11.44)" fill="#dae0f5"/>
        <path id="Path_962" data-name="Path 962" d="M23.132,83.8l-3.505-2.028V77.719l3.505,2.028Z" transform="translate(-3.298 -12.301)" fill="#dae0f5"/>
        <path id="Path_963" data-name="Path 963" d="M32.78,89.4l-3.5-2.029V83.305l3.5,2.033Z" transform="translate(-4.786 -13.163)" fill="#dae0f5"/>
        <path id="Path_964" data-name="Path 964" d="M42.432,94.984l-3.505-2.029V88.9l3.505,2.028Z" transform="translate(-6.273 -14.025)" fill="#dae0f5"/>
        <path id="Path_965" data-name="Path 965" d="M3.827,83.8.322,81.777V77.719l3.505,2.028Z" transform="translate(-0.322 -12.301)" fill="#dae0f5"/>
        <path id="Path_966" data-name="Path 966" d="M13.479,89.4,9.974,87.367V83.305l3.505,2.033Z" transform="translate(-1.81 -13.163)" fill="#dae0f5"/>
        <path id="Path_967" data-name="Path 967" d="M23.132,94.984l-3.505-2.029V88.9l3.505,2.028Z" transform="translate(-3.298 -14.025)" fill="#dae0f5"/>
        <path id="Path_968" data-name="Path 968" d="M32.78,100.574l-3.5-2.028V94.483l3.5,2.029Z" transform="translate(-4.786 -14.886)" fill="#dae0f5"/>
        <path id="Path_969" data-name="Path 969" d="M42.432,106.162l-3.505-2.029v-4.058l3.505,2.028Z" transform="translate(-6.273 -15.748)" fill="#dae0f5"/>
        <path id="Path_970" data-name="Path 970" d="M90.745,39.1l3.505-2.028V33.011L90.745,35.04Z" transform="translate(-14.261 -5.409)" fill="#dae0f5"/>
        <path id="Path_971" data-name="Path 971" d="M81.093,44.689,84.6,42.656V38.6l-3.505,2.029Z" transform="translate(-12.773 -6.271)" fill="#dae0f5"/>
        <path id="Path_972" data-name="Path 972" d="M71.445,50.276l3.5-2.028V44.19l-3.5,2.028Z" transform="translate(-11.286 -7.133)" fill="#dae0f5"/>
        <path id="Path_973" data-name="Path 973" d="M61.793,55.863,65.3,53.834V49.776l-3.505,2.029Z" transform="translate(-9.798 -7.994)" fill="#dae0f5"/>
        <path id="Path_974" data-name="Path 974" d="M52.14,61.453l3.506-2.028V55.363L52.14,57.4Z" transform="translate(-8.31 -8.855)" fill="#dae0f5"/>
        <path id="Path_975" data-name="Path 975" d="M90.745,50.276l3.505-2.028V44.19l-3.505,2.028Z" transform="translate(-14.261 -7.133)" fill="#dae0f5"/>
        <path id="Path_976" data-name="Path 976" d="M81.093,55.863,84.6,53.834V49.776l-3.505,2.029Z" transform="translate(-12.773 -7.994)" fill="#dae0f5"/>
        <path id="Path_977" data-name="Path 977" d="M71.445,61.453l3.5-2.028V55.363l-3.5,2.033Z" transform="translate(-11.286 -8.855)" fill="#dae0f5"/>
        <path id="Path_978" data-name="Path 978" d="M61.793,67.041,65.3,65.012V60.954l-3.505,2.029Z" transform="translate(-9.798 -9.717)" fill="#dae0f5"/>
        <path id="Path_979" data-name="Path 979" d="M52.14,72.632,55.646,70.6V66.541L52.14,68.569Z" transform="translate(-8.31 -10.578)" fill="#dae0f5"/>
        <path id="Path_980" data-name="Path 980" d="M90.745,61.453l3.505-2.028V55.363L90.745,57.4Z" transform="translate(-14.261 -8.855)" fill="#dae0f5"/>
        <path id="Path_981" data-name="Path 981" d="M81.093,67.041,84.6,65.012V60.954l-3.505,2.029Z" transform="translate(-12.773 -9.717)" fill="#dae0f5"/>
        <path id="Path_982" data-name="Path 982" d="M71.445,72.632l3.5-2.029V66.541l-3.5,2.028Z" transform="translate(-11.286 -10.578)" fill="#dae0f5"/>
        <path id="Path_983" data-name="Path 983" d="M61.793,78.219,65.3,76.19V72.132l-3.505,2.029Z" transform="translate(-9.798 -11.44)" fill="#dae0f5"/>
        <path id="Path_984" data-name="Path 984" d="M52.14,83.8l3.506-2.028V77.719L52.14,79.747Z" transform="translate(-8.31 -12.301)" fill="#dae0f5"/>
        <path id="Path_985" data-name="Path 985" d="M90.745,72.632,94.25,70.6V66.541l-3.505,2.028Z" transform="translate(-14.261 -10.578)" fill="#dae0f5"/>
        <path id="Path_986" data-name="Path 986" d="M81.093,78.219,84.6,76.19V72.132l-3.505,2.029Z" transform="translate(-12.773 -11.44)" fill="#dae0f5"/>
        <path id="Path_987" data-name="Path 987" d="M71.445,83.8l3.5-2.028V77.719l-3.5,2.028Z" transform="translate(-11.286 -12.301)" fill="#dae0f5"/>
        <path id="Path_988" data-name="Path 988" d="M61.793,89.4,65.3,87.367V83.305l-3.505,2.033Z" transform="translate(-9.798 -13.163)" fill="#dae0f5"/>
        <path id="Path_989" data-name="Path 989" d="M52.14,94.984l3.506-2.029V88.9L52.14,90.925Z" transform="translate(-8.31 -14.025)" fill="#dae0f5"/>
        <path id="Path_990" data-name="Path 990" d="M90.745,83.8l3.505-2.028V77.719l-3.505,2.028Z" transform="translate(-14.261 -12.301)" fill="#dae0f5"/>
        <path id="Path_991" data-name="Path 991" d="M81.093,89.4,84.6,87.367V83.305l-3.505,2.033Z" transform="translate(-12.773 -13.163)" fill="#dae0f5"/>
        <path id="Path_992" data-name="Path 992" d="M71.445,94.984l3.5-2.029V88.9l-3.5,2.028Z" transform="translate(-11.286 -14.025)" fill="#dae0f5"/>
        <path id="Path_993" data-name="Path 993" d="M61.793,100.574,65.3,98.546V94.483l-3.505,2.029Z" transform="translate(-9.798 -14.886)" fill="#dae0f5"/>
        <path id="Path_994" data-name="Path 994" d="M52.14,106.162l3.506-2.029v-4.058L52.14,102.1Z" transform="translate(-8.31 -15.748)" fill="#dae0f5"/>
      </g>
      <path id="Path_995" data-name="Path 995" d="M651.363,181.61l14.2-8.224v-16.7l-14.2,8.223Z" transform="translate(-100.412 -24.236)" fill="#099398"/>
      <path id="Path_996" data-name="Path 996" d="M648.774,181.61l-14.207-8.224v-16.7l14.207,8.223Z" transform="translate(-97.822 -24.236)" fill="#37bdbd"/>
      <path id="Path_997" data-name="Path 997" d="M648.774,163.408l-14.207-8.223,14.207-8.22,14.2,8.22Z" transform="translate(-97.822 -22.738)" fill="#f4f4f9"/>
      <path id="Path_998" data-name="Path 998" d="M12.018,154.707l10.17-5.887V136.864l-10.17,5.887Z" transform="translate(-1.853 -21.18)" fill="#099398"/>
      <path id="Path_999" data-name="Path 999" d="M10.165,154.707,0,148.82V136.864l10.165,5.887Z" transform="translate(0 -21.18)" fill="#37bdbd"/>
      <path id="Path_1000" data-name="Path 1000" d="M10.165,141.678,0,135.791,10.165,129.9l10.17,5.887Z" transform="translate(0 -20.108)" fill="#f4f4f9"/>
      <path id="Path_1001" data-name="Path 1001" d="M143.243,24.9l10.166-5.887V7.057l-10.166,5.887Z" transform="translate(-22.082 -1.17)" fill="#b9bee4"/>
      <path id="Path_1002" data-name="Path 1002" d="M141.39,24.9l-10.165-5.887V7.057l10.165,5.887Z" transform="translate(-20.229 -1.17)" fill="#ccd1f6"/>
      <path id="Path_1003" data-name="Path 1003" d="M141.39,11.871,131.225,5.984,141.39.1l10.166,5.887Z" transform="translate(-20.229 -0.097)" fill="#f4f4f9"/>
      <path id="Path_1004" data-name="Path 1004" d="M604.005,110.743l14.2-8.223v-16.7l-14.2,8.224Z" transform="translate(-93.111 -13.311)" fill="#099398"/>
      <path id="Path_1005" data-name="Path 1005" d="M601.417,110.743l-14.2-8.223v-16.7l14.2,8.224Z" transform="translate(-90.523 -13.311)" fill="#37bdbd"/>
      <path id="Path_1006" data-name="Path 1006" d="M601.417,92.541l-14.2-8.224,14.2-8.223,14.2,8.223Z" transform="translate(-90.523 -11.812)" fill="#f4f4f9"/>
      <path id="Path_1007" data-name="Path 1007" d="M604.005,91l14.2-8.224v-16.7l-14.2,8.224Z" transform="translate(-93.111 -10.267)" fill="#37bdbd"/>
      <path id="Path_1008" data-name="Path 1008" d="M601.417,91l-14.2-8.224v-16.7l14.2,8.224Z" transform="translate(-90.523 -10.267)" fill="#099398"/>
      <path id="Path_1009" data-name="Path 1009" d="M601.417,72.794l-14.2-8.224,14.2-8.223,14.2,8.223Z" transform="translate(-90.523 -8.768)" fill="#fff"/>
      <path id="Path_1010" data-name="Path 1010" d="M61.913,94.622q1.595-.928.125-1.782L56.42,89.6q-1.8-1.049-.411-2.211a4.091,4.091,0,0,1-3.795-.226L46.163,83.65a2.156,2.156,0,0,0-1.3-.321,4.621,4.621,0,0,0-1.694.7l-2.4-1.392.864-.507a6.46,6.46,0,0,1,6.915-.061l5.575,3.23a3.356,3.356,0,0,0,1.508.516,2.471,2.471,0,0,0,1.331-.368l.618-.355,2.4,1.387-.622.36c-.432.26-.653.516-.618.776s.346.559.929.9l5.368,3.108q3.406,1.977-.1,4.006l-.864.507-2.4-1.387A1.3,1.3,0,0,0,61.913,94.622ZM30.137,88.8,31,88.289l2.416,1.379c-.7.408-1.1.733-1.176.98s.108.494.557.754l6.051,3.511q1.811,1.049.385,2.2a4.162,4.162,0,0,1,3.821.239l5.619,3.242a2.8,2.8,0,0,0,1.573.434,2.712,2.712,0,0,0,1.189-.287l.078-.043.432-.3,2.4,1.391-.864.507a6.482,6.482,0,0,1-6.915.061L41.2,99.247a3.474,3.474,0,0,0-1.547-.541,2.438,2.438,0,0,0-1.34.359l-.622.36-2.4-1.392.618-.355c.432-.26.657-.516.631-.772s-.32-.546-.89-.867l-5.571-3.225Q26.627,90.807,30.137,88.8Z" transform="translate(-4.373 -12.584)" fill="#37bdbd"/>
    </g>
    <g id="Group_14406" data-name="Group 14406" transform="translate(358.146 98.972)">
      <path id="Path_1011" data-name="Path 1011" d="M11.886,9.412.419,2.756V.01L11.886,6.667Z" transform="translate(-0.419 -0.01)" fill="#ced3f8"/>
      <path id="Path_1012" data-name="Path 1012" d="M73.447,45.155,21.209,14.828V12.082L73.447,42.409Z" transform="translate(-3.624 -1.871)" fill="#ced3f8"/>
      <path id="Path_1013" data-name="Path 1013" d="M20.043,22.984.419,11.592V8.846l19.624,11.4Z" transform="translate(-0.419 -1.372)" fill="#bbc0e6"/>
      <path id="Path_1014" data-name="Path 1014" d="M74.934,54.853,30.854,29.262V26.516l44.08,25.592Z" transform="translate(-5.111 -4.096)" fill="#bbc0e6"/>
      <path id="Path_1015" data-name="Path 1015" d="M8.023,24.841l-7.6-4.414V17.681l7.6,4.414Z" transform="translate(-0.419 -2.734)" fill="#fcba06"/>
      <path id="Path_1016" data-name="Path 1016" d="M72.744,62.417l-56.1-32.573V27.1l56.1,32.569Z" transform="translate(-2.92 -4.186)" fill="#5ca380"/>
      <path id="Path_1017" data-name="Path 1017" d="M25.505,43.826.419,29.262V26.516L25.505,41.085Z" transform="translate(-0.419 -4.096)" fill="#bbc0e6"/>
      <path id="Path_1018" data-name="Path 1018" d="M75.93,73.1,37.31,50.682V47.936l38.62,22.42Z" transform="translate(-6.106 -7.398)" fill="#fcba06"/>
      <path id="Path_1019" data-name="Path 1019" d="M11.886,44.753.419,38.1V35.351l11.467,6.661Z" transform="translate(-0.419 -5.458)" fill="#ced3f8"/>
      <path id="Path_1020" data-name="Path 1020" d="M73.447,80.5,21.209,50.169V47.423L73.447,77.755Z" transform="translate(-3.624 -7.319)" fill="#ced3f8"/>
      <path id="Path_1021" data-name="Path 1021" d="M8.637,51.7.419,46.933V44.187l8.218,4.775Z" transform="translate(-0.419 -6.82)" fill="#5ca380"/>
      <path id="Path_1022" data-name="Path 1022" d="M72.855,88.988,17.368,56.775V54.029L72.855,86.246Z" transform="translate(-3.032 -8.337)" fill="#5ca380"/>
      <path id="Path_1023" data-name="Path 1023" d="M11.886,62.429.419,55.768V53.022l11.467,6.661Z" transform="translate(-0.419 -8.182)" fill="#bbc0e6"/>
      <path id="Path_1024" data-name="Path 1024" d="M69.407,95.819,17.169,65.492V62.746L69.407,93.078Z" transform="translate(-3.001 -9.681)" fill="#bbc0e6"/>
      <path id="Path_1025" data-name="Path 1025" d="M11.886,71.259.419,64.6V61.857l11.467,6.661Z" transform="translate(-0.419 -9.544)" fill="#ced3f8"/>
      <path id="Path_1026" data-name="Path 1026" d="M73.447,107,21.209,76.675V73.929L73.447,104.26Z" transform="translate(-3.624 -11.405)" fill="#ced3f8"/>
      <path id="Path_1027" data-name="Path 1027" d="M16.273,82.642,4.8,75.986V73.24L16.273,79.9Z" transform="translate(-1.095 -11.299)" fill="#ced3f8"/>
      <path id="Path_1028" data-name="Path 1028" d="M73.447,115.838,21.209,85.51V82.769L73.447,113.1Z" transform="translate(-3.624 -12.768)" fill="#ced3f8"/>
      <path id="Path_1029" data-name="Path 1029" d="M7.838,86.584.419,82.274V79.528l7.419,4.31Z" transform="translate(-0.419 -12.268)" fill="#fcba06"/>
      <path id="Path_1030" data-name="Path 1030" d="M68.051,121.542,11.764,88.859V86.118L68.051,118.8Z" transform="translate(-2.168 -13.284)" fill="#5ca380"/>
      <path id="Path_1031" data-name="Path 1031" d="M11.886,97.77.419,91.109V88.368l11.467,6.657Z" transform="translate(-0.419 -13.631)" fill="#bbc0e6"/>
      <path id="Path_1032" data-name="Path 1032" d="M40.333,114.282l-19.124-11.1v-2.742l19.124,11.1Z" transform="translate(-3.624 -15.492)" fill="#bbc0e6"/>
      <path id="Path_1033" data-name="Path 1033" d="M11.886,106.605.419,99.945V97.2l11.467,6.657Z" transform="translate(-0.419 -14.993)" fill="#5ca380"/>
      <path id="Path_1034" data-name="Path 1034" d="M73.447,142.348,21.209,112.016v-2.741L73.447,139.6Z" transform="translate(-3.624 -16.854)" fill="#5ca380"/>
      <path id="Path_1035" data-name="Path 1035" d="M8.637,113.482l-8.218-4.7v-2.741l8.218,4.7Z" transform="translate(-0.419 -16.355)" fill="#dc8b00"/>
      <path id="Path_1036" data-name="Path 1036" d="M59.374,142.988,17.368,118.539v-2.746l42.006,24.449Z" transform="translate(-3.032 -17.859)" fill="#dc8b00"/>
      <path id="Path_1037" data-name="Path 1037" d="M11.886,124.276.419,117.615v-2.741l11.467,6.656Z" transform="translate(-0.419 -17.717)" fill="#ced3f8"/>
      <path id="Path_1038" data-name="Path 1038" d="M73.447,160.018,21.209,129.687v-2.742l52.238,30.328Z" transform="translate(-3.624 -19.578)" fill="#ced3f8"/>
      <path id="Path_1039" data-name="Path 1039" d="M11.886,133.111.419,126.45v-2.741l11.467,6.657Z" transform="translate(-0.419 -19.079)" fill="#bbc0e6"/>
      <path id="Path_1040" data-name="Path 1040" d="M64.577,163.706,21.209,138.522V135.78l43.368,25.179Z" transform="translate(-3.624 -20.94)" fill="#bbc0e6"/>
      <path id="Path_1041" data-name="Path 1041" d="M20.043,146.67.419,135.29v-2.746l19.624,11.38Z" transform="translate(-0.419 -20.441)" fill="#bbc0e6"/>
      <path id="Path_1042" data-name="Path 1042" d="M46.629,162.118l-15.775-9.172V150.2l15.775,9.172Z" transform="translate(-5.111 -23.163)" fill="#bbc0e6"/>
      <ellipse id="Ellipse_89" data-name="Ellipse 89" cx="8.848" cy="15.368" rx="8.848" ry="15.368" transform="translate(68.488 50.394) rotate(-30)" fill="url(#linear-gradient-5)"/>
      <path id="Path_1043" data-name="Path 1043" d="M99.623,63.863c-.264-.239-.536-.217-.61.048l-2.83,10.232a1.024,1.024,0,0,0,.346.908c.264.239.536.217.609-.048l2.83-10.232A1.025,1.025,0,0,0,99.623,63.863Zm-3.889.174c-.151-.352-.462-.6-.687-.547l-4.753,1.038c-.134.026-.216.156-.216.348a1.094,1.094,0,0,0,.216.6l4.753,6.543c.225.313.536.435.687.252a.778.778,0,0,0-.125-.869l-4.152-5.727,4.152-.908c.207-.052.264-.378.108-.73Zm10.5,9.733-4.753-6.543c-.225-.313-.531-.435-.687-.252a.77.77,0,0,0,.125.869l4.152,5.727-4.152.908c-.225.048-.281.374-.125.726s.462.6.687.548l4.753-1.038c.134-.026.211-.156.211-.348a1.076,1.076,0,0,0-.228-.6Z" transform="translate(-14.241 -9.795)" fill="#fff"/>
    </g>
    <g id="Group_14407" data-name="Group 14407" transform="translate(182.724 23.721)">
      <path id="Path_1044" data-name="Path 1044" d="M175.722,184.17,81.094,129.892V3.854l94.628,54.281Z" transform="translate(-12.523 -0.632)" fill="#d0d7e9"/>
      <path id="Path_1045" data-name="Path 1045" d="M5.438,52.677c1.324-.931,3.233-.91,5.36.311L91.087,99.029A15.89,15.89,0,0,1,98.3,111.456V221.808c0,2.229-.781,3.811-2.044,4.579h0l-.061.034-.039.026-3.016,1.725h0c1.263-.767,2.049-2.35,2.049-4.579V113.228A15.923,15.923,0,0,0,87.971,100.8L7.682,54.759a5.265,5.265,0,0,0-4.809-.625Z" transform="translate(-0.465 -8.057)" fill="url(#linear-gradient-6)"/>
      <path id="Path_1046" data-name="Path 1046" d="M7.243,55.1l80.289,46.042a15.92,15.92,0,0,1,7.222,12.426v110.37c0,4.557-3.256,6.42-7.222,4.144L7.243,182.033A15.89,15.89,0,0,1,.026,169.61V59.223C.026,54.683,3.272,52.82,7.243,55.1Z" transform="translate(-0.026 -8.381)" fill="#f1f1f6"/>
      <path id="Path_1047" data-name="Path 1047" d="M78.123,1.826c0-1.591,1.124-2.238,2.513-1.44A5.5,5.5,0,0,1,83.149,4.7c0,1.591-1.124,2.238-2.513,1.44a5.508,5.508,0,0,1-2.513-4.312ZM172.751,56.1c0-1.591,1.124-2.238,2.513-1.44a5.514,5.514,0,0,1,2.512,4.312c0,1.6-1.123,2.242-2.512,1.445a5.515,5.515,0,0,1-2.513-4.316Z" transform="translate(-12.065 -0.045)" fill="#5652cc"/>
      <path id="Path_1048" data-name="Path 1048" d="M190,215c0-1.6,1.124-2.238,2.513-1.445a5.515,5.515,0,0,1,2.512,4.312c0,1.591-1.123,2.238-2.512,1.44A5.511,5.511,0,0,1,190,215Z" transform="translate(-29.311 -32.907)" fill="#5ca380"/>
      <path id="Path_1049" data-name="Path 1049" d="M5.826,40.689a.431.431,0,0,1-.217-.806l2.252-1.294a.437.437,0,0,1,.595.16.431.431,0,0,1-.161.591L6.039,40.616a.436.436,0,0,1-.213.073Zm6.8-3.9a.431.431,0,0,1-.217-.8L16.954,33.4a.436.436,0,0,1,.59.16.43.43,0,0,1-.156.586l-4.544,2.591A.436.436,0,0,1,12.627,36.787Zm9.088-5.226a.434.434,0,0,1-.373-.216.43.43,0,0,1,.156-.591l4.548-2.587a.436.436,0,0,1,.59.155.43.43,0,0,1-.156.591l-4.548,2.609A.436.436,0,0,1,21.714,31.561Zm9.092-5.213a.431.431,0,0,1-.217-.806l4.527-2.6a.437.437,0,0,1,.595.16.431.431,0,0,1-.161.591l-4.544,2.587a.436.436,0,0,1-.2.086Zm9.083-5.2a.431.431,0,0,1-.217-.8l4.548-2.587a.436.436,0,0,1,.577.166.43.43,0,0,1-.143.58l-4.548,2.587A.436.436,0,0,1,39.89,21.144ZM49,15.931a.431.431,0,0,1-.217-.806l4.544-2.587a.436.436,0,0,1,.444-.013.43.43,0,0,1-.01.759l-4.544,2.609A.436.436,0,0,1,49,15.931ZM58.1,10.718a.431.431,0,0,1-.217-.806L62.423,7.3a.437.437,0,0,1,.595.16.431.431,0,0,1-.161.591L58.313,10.64a.436.436,0,0,1-.234.078ZM67.167,5.5a.435.435,0,0,1-.373-.216A.43.43,0,0,1,66.95,4.7L69.206,3.4a.436.436,0,0,1,.59.155.43.43,0,0,1-.156.591L67.384,5.444A.436.436,0,0,1,67.167,5.5Zm33.288,89.47a.431.431,0,0,1-.217-.806l2.257-1.293a.435.435,0,0,1,.577.166.43.43,0,0,1-.143.58l-2.257,1.293A.435.435,0,0,1,100.454,94.971Zm6.8-3.906a.435.435,0,0,1-.423-.32.43.43,0,0,1,.206-.486l4.544-2.587a.436.436,0,0,1,.595.155.431.431,0,0,1-.161.591l-4.544,2.609a.434.434,0,0,1-.217.039Zm9.088-5.213a.435.435,0,0,1-.423-.32.431.431,0,0,1,.206-.487l4.548-2.6a.438.438,0,0,1,.436,0,.431.431,0,0,1,0,.749l-4.548,2.587a.433.433,0,0,1-.217.078Zm9.114-5.218a.431.431,0,0,1-.217-.8l4.544-2.609a.436.436,0,0,1,.595.16.429.429,0,0,1-.161.586l-4.544,2.609a.435.435,0,0,1-.239.06Zm9.092-5.213a.431.431,0,0,1-.217-.806l4.544-2.587a.437.437,0,0,1,.33-.045.429.429,0,0,1,.1.791l-4.544,2.587a.434.434,0,0,1-.239.065Zm9.066-5.209a.431.431,0,0,1-.217-.806l4.557-2.609a.437.437,0,0,1,.595.16.431.431,0,0,1-.161.591l-4.548,2.587A.435.435,0,0,1,143.614,70.212ZM152.728,65a.434.434,0,0,1-.377-.216.429.429,0,0,1,.161-.586l4.544-2.609a.436.436,0,0,1,.595.16.43.43,0,0,1-.161.586l-4.544,2.587A.44.44,0,0,1,152.728,65Zm9.071-5.213a.431.431,0,0,1-.217-.806l2.252-1.294a.437.437,0,0,1,.595.16.431.431,0,0,1-.161.591l-2.252,1.294A.433.433,0,0,1,161.8,59.782ZM100.454,221.006a.431.431,0,0,1-.217-.807l2.257-1.293a.435.435,0,0,1,.577.167.429.429,0,0,1-.143.579l-2.257,1.293a.436.436,0,0,1-.217.061Zm6.8-3.9a.429.429,0,0,1-.217-.8l4.544-2.609a.437.437,0,0,1,.444-.013.429.429,0,0,1-.01.759l-4.544,2.587A.432.432,0,0,1,107.255,217.1Zm9.088-5.213a.431.431,0,0,1-.217-.806l4.548-2.609a.437.437,0,0,1,.595.16.43.43,0,0,1-.161.59l-4.548,2.587a.432.432,0,0,1-.217.077Zm9.114-5.213a.431.431,0,0,1-.217-.806l4.544-2.587a.435.435,0,0,1,.595.16.429.429,0,0,1-.161.586l-4.544,2.587a.436.436,0,0,1-.239.06Zm9.07-5.23a.434.434,0,0,1-.414-.32.429.429,0,0,1,.2-.482l4.544-2.587a.437.437,0,0,1,.444-.013.43.43,0,0,1-.01.759l-4.544,2.587A.443.443,0,0,1,134.527,201.447Zm9.088-5.2a.431.431,0,0,1-.217-.806l4.557-2.618a.436.436,0,0,1,.59.156.428.428,0,0,1-.156.59l-4.548,2.587A.439.439,0,0,1,143.614,196.247Zm9.114-5.217a.434.434,0,0,1-.377-.216.429.429,0,0,1,.161-.586l4.544-2.609a.436.436,0,0,1,.595.159.43.43,0,0,1-.161.586l-4.544,2.587A.439.439,0,0,1,152.728,191.03Zm9.071-5.213a.435.435,0,0,1-.415-.32.43.43,0,0,1,.2-.482l2.252-1.294a.436.436,0,0,1,.595.156.43.43,0,0,1-.161.59l-2.252,1.294a.439.439,0,0,1-.217.056Z" transform="translate(-0.852 -0.554)" fill="#bbc0e6"/>
      <path id="Path_1050" data-name="Path 1050" d="M86.254,150.32,12.288,107.9v-26.3l73.966,42.424Z" transform="translate(-1.916 -12.616)" fill="#d0d7e9"/>
      <path id="Path_1051" data-name="Path 1051" d="M52.253,119.654c0-2.014,1.423-2.833,3.177-1.824a6.955,6.955,0,0,1,3.177,5.476c0,2.013-1.419,2.828-3.177,1.824A6.967,6.967,0,0,1,52.253,119.654Z" transform="translate(-8.077 -18.135)" fill="#fff"/>
      <ellipse id="Ellipse_90" data-name="Ellipse 90" cx="2.591" cy="4.475" rx="2.591" ry="4.475" transform="translate(55.495 108.004) rotate(-30)" fill="#fff"/>
      <path id="Path_1052" data-name="Path 1052" d="M43.681,114.738a6.972,6.972,0,0,0-3.177-5.472c-1.736-1-3.177-.19-3.177,1.824a6.981,6.981,0,0,0,3.177,5.472C42.262,117.567,43.681,116.751,43.681,114.738Z" transform="translate(-5.776 -16.815)" fill="#fff"/>
      <path id="Path_1053" data-name="Path 1053" d="M17.787,177.957l-5.5-3.152V120.972l5.5,3.157Z" transform="translate(-1.916 -18.686)" fill="#d0d7e9"/>
      <path id="Path_1054" data-name="Path 1054" d="M54.977,158.764v-4.519l37.857,21.71v4.518Z" transform="translate(-8.497 -23.815)" fill="#d0d7e9"/>
      <path id="Path_1055" data-name="Path 1055" d="M54.977,189.354v-4.518L92.834,206.55v4.519Z" transform="translate(-8.497 -28.531)" fill="#d0d7e9"/>
      <path id="Path_1056" data-name="Path 1056" d="M25.916,191.613v-4.519l62.439,35.814v4.515Z" transform="translate(-4.017 -28.879)" fill="#d0d7e9"/>
      <path id="Path_1057" data-name="Path 1057" d="M28.333,140.537c0-5.347,3.78-7.515,8.441-4.842s8.441,9.179,8.441,14.527-3.78,7.515-8.441,4.842S28.333,145.888,28.333,140.537Z" transform="translate(-4.389 -20.779)" fill="#37bdbd"/>
      <path id="Path_1058" data-name="Path 1058" d="M28.333,171.132c0-5.351,3.78-7.52,8.441-4.842s8.441,9.175,8.441,14.527-3.78,7.515-8.441,4.842S28.333,176.479,28.333,171.132Z" transform="translate(-4.389 -25.496)" fill="#d0d7e9"/>
    </g>
    <g id="Group_14411" data-name="Group 14411" transform="translate(51.695 308.921)">
      <g id="Group_14409" data-name="Group 14409" transform="translate(38.122 0)">
        <path id="Path_1059" data-name="Path 1059" d="M75.858,90.287c1.718-1,1.718-2.638,0-3.638l-46.93-27.41a6.833,6.833,0,0,0-6.223,0L1.288,71.747c-1.718,1-1.718,2.638,0,3.638L48.227,102.8a6.83,6.83,0,0,0,6.223,0Z" transform="translate(0 -9.205)" fill="#f7f7fc"/>
        <path id="Path_1060" data-name="Path 1060" d="M10.839,76.614v.03C10.839,76.675,10.835,76.614,10.839,76.614Z" transform="translate(-1.671 -11.999)" fill="#d0d4f6"/>
        <path id="Path_1061" data-name="Path 1061" d="M32.417,68.09l-2.01-1.17,2.01-1.173,2.005,1.173Z" transform="translate(-4.687 -10.324)" fill="#d0d4f6"/>
        <path id="Path_1062" data-name="Path 1062" d="M36.413,70.426,34.4,69.253l2.01-1.173,2.006,1.173Z" transform="translate(-5.303 -10.683)" fill="#d0d4f6"/>
        <path id="Path_1063" data-name="Path 1063" d="M40.41,72.764,38.4,71.591l2.006-1.173,2.01,1.173Z" transform="translate(-5.92 -11.044)" fill="#d0d4f6"/>
        <path id="Path_1064" data-name="Path 1064" d="M44.4,75.1,42.4,73.924,44.4,72.75l2.01,1.174Z" transform="translate(-6.536 -11.403)" fill="#d0d4f6"/>
        <path id="Path_1065" data-name="Path 1065" d="M48.4,77.431l-2.01-1.17,2.01-1.173,2.005,1.173Z" transform="translate(-7.152 -11.764)" fill="#d0d4f6"/>
        <path id="Path_1066" data-name="Path 1066" d="M52.4,79.767l-2.01-1.173,2.01-1.173,2.005,1.173Z" transform="translate(-7.768 -12.123)" fill="#d0d4f6"/>
        <path id="Path_1067" data-name="Path 1067" d="M56.4,82.105l-2.005-1.173L56.4,79.759,58.4,80.932Z" transform="translate(-8.385 -12.484)" fill="#d0d4f6"/>
        <path id="Path_1068" data-name="Path 1068" d="M60.392,84.438l-2.005-1.173,2.005-1.174L62.4,83.265Z" transform="translate(-9.001 -12.843)" fill="#d0d4f6"/>
        <path id="Path_1069" data-name="Path 1069" d="M64.388,86.776,62.383,85.6l2.005-1.174L66.394,85.6Z" transform="translate(-9.617 -13.204)" fill="#d0d4f6"/>
        <path id="Path_1070" data-name="Path 1070" d="M68.384,89.109l-2.005-1.174,2.005-1.173,2.01,1.173Z" transform="translate(-10.233 -13.563)" fill="#d0d4f6"/>
        <path id="Path_1071" data-name="Path 1071" d="M72.384,91.442l-2.01-1.169,2.01-1.173,2.006,1.173Z" transform="translate(-10.849 -13.924)" fill="#d0d4f6"/>
        <path id="Path_1072" data-name="Path 1072" d="M76.38,93.779l-2.01-1.173,2.01-1.173,2.005,1.173Z" transform="translate(-11.465 -14.283)" fill="#d0d4f6"/>
        <path id="Path_1073" data-name="Path 1073" d="M30.023,71.361l-3.612-2.108,2.01-1.173,3.608,2.112Z" transform="translate(-4.071 -10.683)" fill="#d0d4f6"/>
        <path id="Path_1074" data-name="Path 1074" d="M27.565,74.405l-4.982-2.912,2.005-1.173,4.982,2.912Z" transform="translate(-3.481 -11.029)" fill="#d0d4f6"/>
        <path id="Path_1075" data-name="Path 1075" d="M24.944,77.542l-6.357-3.716,2.005-1.173,6.357,3.716Z" transform="translate(-2.865 -11.388)" fill="#d0d4f6"/>
        <path id="Path_1076" data-name="Path 1076" d="M17.357,78.685l-3.608-2.108,2.719-1.586L20.075,77.1Z" transform="translate(-2.119 -11.749)" fill="#d0d4f6"/>
        <path id="Path_1077" data-name="Path 1077" d="M23.246,82.128,19.638,80.02l2.719-1.587,3.608,2.108Z" transform="translate(-3.027 -12.279)" fill="#d0d4f6"/>
        <path id="Path_1078" data-name="Path 1078" d="M29.14,85.569l-3.612-2.108,2.719-1.59,3.608,2.112Z" transform="translate(-3.935 -12.809)" fill="#d0d4f6"/>
        <path id="Path_1079" data-name="Path 1079" d="M49.444,97.434l-3.607-2.108,2.718-1.586,3.608,2.107Z" transform="translate(-7.066 -14.639)" fill="#d0d4f6"/>
        <path id="Path_1080" data-name="Path 1080" d="M58.793,102.9l-7.077-4.134,2.719-1.59,7.077,4.137Z" transform="translate(-7.972 -15.168)" fill="#d0d4f6"/>
        <path id="Path_1081" data-name="Path 1081" d="M42.248,93.232,31.417,86.9l2.719-1.591,10.831,6.328Z" transform="translate(-4.843 -13.34)" fill="#d0d4f6"/>
        <path id="Path_1082" data-name="Path 1082" d="M35.256,74.421,32.3,72.7l2.01-1.174,2.95,1.726Z" transform="translate(-4.979 -11.214)" fill="#d0d4f6"/>
        <path id="Path_1083" data-name="Path 1083" d="M33.047,77.607,30.1,75.881,32.1,74.708l2.955,1.73Z" transform="translate(-4.64 -11.705)" fill="#d0d4f6"/>
        <path id="Path_1084" data-name="Path 1084" d="M30.783,80.829,27.833,79.1l2.005-1.173,2.955,1.725Z" transform="translate(-4.291 -12.202)" fill="#d0d4f6"/>
        <path id="Path_1085" data-name="Path 1085" d="M35.9,83.814l-2.955-1.726,2.01-1.169,2.95,1.726Z" transform="translate(-5.079 -12.663)" fill="#d0d4f6"/>
        <path id="Path_1086" data-name="Path 1086" d="M41.013,86.8l-2.95-1.726L40.068,83.9l2.955,1.726Z" transform="translate(-5.868 -13.123)" fill="#d0d4f6"/>
        <path id="Path_1087" data-name="Path 1087" d="M46.131,89.795l-2.955-1.726,2.01-1.173,2.95,1.725Z" transform="translate(-6.656 -13.584)" fill="#d0d4f6"/>
        <path id="Path_1088" data-name="Path 1088" d="M51.244,92.78l-2.95-1.726L50.3,89.886l2.955,1.726Z" transform="translate(-7.445 -14.045)" fill="#d0d4f6"/>
        <path id="Path_1089" data-name="Path 1089" d="M56.362,95.77l-2.955-1.726,2.01-1.173,2.95,1.726Z" transform="translate(-8.233 -14.505)" fill="#d0d4f6"/>
        <path id="Path_1090" data-name="Path 1090" d="M64.025,100.251l-5.506-3.216,2.01-1.173,5.506,3.216Z" transform="translate(-9.021 -14.966)" fill="#d0d4f6"/>
        <path id="Path_1091" data-name="Path 1091" d="M38.165,80.6,35.21,78.872,37.215,77.7l2.955,1.726Z" transform="translate(-5.428 -12.166)" fill="#d0d4f6"/>
        <path id="Path_1092" data-name="Path 1092" d="M43.278,83.588l-2.95-1.73,2.006-1.169,2.955,1.726Z" transform="translate(-6.217 -12.627)" fill="#d0d4f6"/>
        <path id="Path_1093" data-name="Path 1093" d="M48.4,86.573,45.44,84.847l2.006-1.173L50.4,85.4Z" transform="translate(-7.005 -13.087)" fill="#d0d4f6"/>
        <path id="Path_1094" data-name="Path 1094" d="M53.508,89.563l-2.955-1.725,2.01-1.174,2.955,1.726Z" transform="translate(-7.793 -13.548)" fill="#d0d4f6"/>
        <path id="Path_1095" data-name="Path 1095" d="M58.626,92.549l-2.955-1.726,2.005-1.169,2.955,1.726Z" transform="translate(-8.582 -14.009)" fill="#d0d4f6"/>
        <path id="Path_1096" data-name="Path 1096" d="M67.663,97.833l-6.879-4.02,2.01-1.173,6.875,4.02Z" transform="translate(-9.37 -14.469)" fill="#d0d4f6"/>
        <path id="Path_1097" data-name="Path 1097" d="M40.369,77.412l-2.95-1.726,2.006-1.173,2.955,1.726Z" transform="translate(-5.768 -11.675)" fill="#d0d4f6"/>
        <path id="Path_1098" data-name="Path 1098" d="M45.486,80.4l-2.955-1.726,2.01-1.173,2.95,1.726Z" transform="translate(-6.556 -12.135)" fill="#d0d4f6"/>
        <path id="Path_1099" data-name="Path 1099" d="M50.6,83.387l-2.95-1.725,2.005-1.174,2.955,1.726Z" transform="translate(-7.345 -12.596)" fill="#d0d4f6"/>
        <path id="Path_1100" data-name="Path 1100" d="M55.717,86.378l-2.955-1.726,2.01-1.173,2.95,1.726Z" transform="translate(-8.134 -13.057)" fill="#d0d4f6"/>
        <path id="Path_1101" data-name="Path 1101" d="M60.829,89.363l-2.955-1.726,2.011-1.173,2.955,1.726Z" transform="translate(-8.922 -13.517)" fill="#d0d4f6"/>
        <path id="Path_1102" data-name="Path 1102" d="M65.947,92.353l-2.955-1.725L65,89.454l2.955,1.726Z" transform="translate(-9.711 -13.978)" fill="#d0d4f6"/>
        <path id="Path_1103" data-name="Path 1103" d="M72.034,95.909l-3.929-2.291,2.01-1.173,3.926,2.29Z" transform="translate(-10.499 -14.439)" fill="#d0d4f6"/>
        <path id="Path_1104" data-name="Path 1104" d="M1.288,78.132l46.939,27.419a6.83,6.83,0,0,0,6.223,0L75.858,93.035a2.21,2.21,0,0,0,1.288-1.817V92.6h0a2.244,2.244,0,0,1-1.288,1.825L54.45,106.942a6.83,6.83,0,0,1-6.223,0L1.288,79.514A2.257,2.257,0,0,1,0,77.658H0V76.311A2.238,2.238,0,0,0,1.288,78.132Z" transform="translate(0 -11.952)" fill="url(#linear-gradient-7)"/>
        <path id="Path_1105" data-name="Path 1105" d="M83.672,34.7a6.971,6.971,0,0,0-3.109-5.45L33.633,1.823c-1.718-1-3.109-.178-3.109,1.821V44.98a7.005,7.005,0,0,0,3.109,5.454l46.93,27.419c1.718,1,3.109.183,3.109-1.817Z" transform="translate(-4.705 -0.404)" fill="url(#linear-gradient-8)"/>
        <path id="Path_1106" data-name="Path 1106" d="M83.842,75.86V34.516a6.971,6.971,0,0,0-3.109-5.45L33.8,1.642a2.191,2.191,0,0,0-2.177-.226L33.253.469h0a2.128,2.128,0,0,1,2.255.178L82.442,28.066a7.005,7.005,0,0,1,3.109,5.454V74.86a2.153,2.153,0,0,1-1,2.073l-1.55.9A2.224,2.224,0,0,0,83.842,75.86Z" transform="translate(-4.875 -0.223)" fill="url(#linear-gradient-9)"/>
        <g id="Group_14408" data-name="Group 14408" transform="translate(34.734 13.197)">
          <path id="Path_1107" data-name="Path 1107" d="M9.834,7.921.447,2.436V.411L9.834,5.9Z" transform="translate(-0.447 -0.411)" fill="#6b67e9"/>
          <path id="Path_1108" data-name="Path 1108" d="M4.973,17.815.447,15.168v2.025l4.526,2.642Z" transform="translate(-0.447 -2.686)" fill="#bbc0e6"/>
          <path id="Path_1109" data-name="Path 1109" d="M32.039,60.118l-4.526-2.642V55.45l4.526,2.642Z" transform="translate(-4.619 -8.896)" fill="#6b67e9"/>
          <path id="Path_1110" data-name="Path 1110" d="M37.765,24.24,13.424,10.015V7.99L37.765,22.215Z" transform="translate(-2.447 -1.579)" fill="#e19100"/>
          <path id="Path_1111" data-name="Path 1111" d="M30.794,25.016,6.453,10.8V8.771l24.341,14.22Z" transform="translate(-1.373 -1.7)" fill="#bbc0e6"/>
          <path id="Path_1112" data-name="Path 1112" d="M26.733,27.5,4.2,14.336V12.311L26.733,25.475Z" transform="translate(-1.026 -2.245)" fill="#6b67e9"/>
          <path id="Path_1113" data-name="Path 1113" d="M9.834,27.729.447,22.249V20.224l9.387,5.484Z" transform="translate(-0.447 -3.465)" fill="#e19100"/>
          <path id="Path_1114" data-name="Path 1114" d="M37.765,44.052,13.424,29.828V27.8L37.765,42.027Z" transform="translate(-2.447 -4.633)" fill="#6b67e9"/>
          <path id="Path_1115" data-name="Path 1115" d="M30.794,44.828,6.453,30.609V28.583L30.794,42.8Z" transform="translate(-1.373 -4.754)" fill="#6b67e9"/>
          <path id="Path_1116" data-name="Path 1116" d="M30.794,52.514,6.453,38.289v2.025l24.341,14.22Z" transform="translate(-1.373 -6.25)" fill="#e19100"/>
          <path id="Path_1117" data-name="Path 1117" d="M35.453,52.407,11.545,38.439V36.414L35.453,50.382Z" transform="translate(-2.158 -5.961)" fill="#6b67e9"/>
        </g>
      </g>
      <g id="Group_14410" data-name="Group 14410" transform="translate(0 43.93)">
        <path id="Path_1118" data-name="Path 1118" d="M68.592,92.117c0-5.089,3.186-5.215,3.186-5.215a13.078,13.078,0,0,0,4.531-1.178c2.813-1.178,6.665-.713,4.483,3.355a.792.792,0,0,1-.073.148,1.983,1.983,0,0,1-.7.63L73.05,93.964C71.985,94.581,68.618,93.165,68.592,92.117Z" transform="translate(-10.673 -13.351)" fill="url(#linear-gradient-10)"/>
        <path id="Path_1119" data-name="Path 1119" d="M68.615,92.294h0c.06,1.047,3.384,2.438,4.436,1.83l6.966-4.133A6.657,6.657,0,0,0,81,89.269c-.064.139-.12.274-.2.435a.792.792,0,0,1-.073.148,1.983,1.983,0,0,1-.7.63L73.052,94.6c-.992.574-4.011-.635-4.41-1.652a1.463,1.463,0,0,1-.034-.2,3.163,3.163,0,0,1,.009-.448Z" transform="translate(-10.674 -13.984)" fill="#20196f"/>
        <path id="Path_1120" data-name="Path 1120" d="M70.09,86.4a28.91,28.91,0,0,1,3.71.743,1.616,1.616,0,0,0,.258.756l.077.1h0c.567.4,1.147,1.034-.2,1.895a1.86,1.86,0,0,1-2.435-.174,2.256,2.256,0,0,0-.786-.9,2.069,2.069,0,0,0-.756-.322.223.223,0,0,0,0-.07S69.746,86.4,70.09,86.4Z" transform="translate(-10.873 -13.542)" fill="#fff"/>
        <path id="Path_1121" data-name="Path 1121" d="M38.033,73.307c1.288-4.728,1.864-9.731,3.131-15.285,3.006-.608,27.128-12.46,30.383-6.084a1.594,1.594,0,0,1,.159.752h0c1.151,5.941-2.714,29.158-2.714,29.158h0a1.066,1.066,0,0,1-.537.626,3,3,0,0,1-2.744,0c-.344-.2-.631-.461-.661-.721h0S63.375,67.94,63.886,61.829C55.593,68.335,43.032,75,38.033,73.307Z" transform="translate(-5.962 -7.94)" fill="#182d69"/>
        <path id="Path_1122" data-name="Path 1122" d="M80.285,100.2c0-5.089,3.186-5.237,3.186-5.237A13.079,13.079,0,0,0,88,93.781c2.813-1.178,6.661-.713,4.483,3.355a.978.978,0,0,1-.073.152,1.96,1.96,0,0,1-.709.626l-6.961,4.133C83.665,102.66,80.311,101.243,80.285,100.2Z" transform="translate(-12.475 -14.593)" fill="url(#linear-gradient-11)"/>
        <path id="Path_1123" data-name="Path 1123" d="M80.3,100.377h0c.06,1.047,3.388,2.438,4.44,1.83l6.961-4.133a6.066,6.066,0,0,0,.983-.721c-.064.139-.12.274-.2.435a.974.974,0,0,1-.073.152,1.96,1.96,0,0,1-.709.626L84.744,102.7c-.992.574-4.015-.634-4.415-1.651a.98.98,0,0,1-.03-.2,3.949,3.949,0,0,1,0-.465Z" transform="translate(-12.477 -15.23)" fill="#20196f"/>
        <path id="Path_1124" data-name="Path 1124" d="M81.782,94.484a28.809,28.809,0,0,1,3.706.743,1.675,1.675,0,0,0,.258.756l.082.1h0c.567.4,1.147,1.034-.206,1.895a1.86,1.86,0,0,1-2.435-.174,2.252,2.252,0,0,0-.786-.9,2.063,2.063,0,0,0-.752-.322.594.594,0,0,0,0-.07S81.439,94.484,81.782,94.484Z" transform="translate(-12.676 -14.788)" fill="#fff"/>
        <path id="Path_1125" data-name="Path 1125" d="M88.085,61.256C89.227,67.2,85.362,90.41,85.362,90.41h0a1.087,1.087,0,0,1-.541.626,2.974,2.974,0,0,1-2.74,0c-.348-.2-.631-.435-.666-.721h0S79.737,76.5,80.252,70.4C83.048,68.306,88.085,64.842,88.085,61.256Z" transform="translate(-12.455 -9.666)" fill="url(#linear-gradient-9)"/>
        <path id="Path_1126" data-name="Path 1126" d="M35.726,128.451.117,107.642V80.714l35.609,20.809Z" transform="translate(-0.117 -12.665)" fill="#37bdbd"/>
        <path id="Path_1127" data-name="Path 1127" d="M42.216,128.452l35.61-20.8V80.72l-35.61,20.8Z" transform="translate(-6.607 -12.666)" fill="#099398"/>
        <path id="Path_1128" data-name="Path 1128" d="M35.726,97.733l35.61-20.8L35.726,56.123.117,76.923Z" transform="translate(-0.117 -8.875)" fill="#f1f1f6"/>
        <path id="Path_1129" data-name="Path 1129" d="M53.417,83.33H72.141L79.553,79l-16.13-9.427Z" transform="translate(-8.334 -10.948)" fill="url(#linear-gradient-13)"/>
        <path id="Path_1130" data-name="Path 1130" d="M62.992,36.638c.812-.708.722-.591,1.641-1.3a1.658,1.658,0,0,0,.086-.535,1.877,1.877,0,0,1,.563-.17,4.669,4.669,0,0,0,1.688-.139h0c.614-.161,1.954-3.911,5.128-3.72a7.59,7.59,0,0,0-1.817,2.043,1.141,1.141,0,0,1,1.447.122,11.942,11.942,0,0,1-3.762,2.016h0a4.609,4.609,0,0,1-1.683.143,1.643,1.643,0,0,0-.563.17,1.839,1.839,0,0,1-.09.535c-.73.574-1.361,1.108-1.692,1.4Z" transform="translate(-9.81 -4.965)" fill="url(#linear-gradient-14)"/>
        <path id="Path_1131" data-name="Path 1131" d="M81.745,41.762a1.826,1.826,0,0,0,.082-.435c2.985.187,3.783-1.856,4.69-2.773s1.112-1.243,2.126-1.243,1.791-.817.82-1.434c-.236-.148-.5-.291-.752-.435a1.383,1.383,0,0,1,.185.078,14.033,14.033,0,0,1,1.568.8c.966.613.193,1.43-.82,1.43s-1.22.326-2.126,1.243-1.718,2.96-4.694,2.773a1.7,1.7,0,0,1-.082.435c-1.8,1.408-2.2,1.943-3.762,3.129l-1.065-.6C79.434,43.574,79.975,43.148,81.745,41.762Z" transform="translate(-12.11 -5.687)" fill="url(#linear-gradient-15)"/>
        <path id="Path_1132" data-name="Path 1132" d="M53.409,43.566a9.138,9.138,0,0,1-2.907.191,3.768,3.768,0,0,1-.726-.148,3.9,3.9,0,0,0,1.718.609,9.221,9.221,0,0,0,2.56-.126C53.839,43.922,53.624,43.749,53.409,43.566Z" transform="translate(-7.772 -6.939)" fill="url(#linear-gradient-16)"/>
        <path id="Path_1133" data-name="Path 1133" d="M49.976,66.1c3.006-.608,27.132-12.456,30.388-6.084a1.554,1.554,0,0,1,.155.752h0c0,3.585-5.037,7.049-7.825,9.127-8.288,6.519-20.845,13.164-25.848,11.478-8.1-2.738-12.175-4.9-14.752-10.47-.859-1.83-1.022-6.954-1.022-9.148C40.03,57.282,47.03,61.333,49.976,66.1Z" transform="translate(-4.889 -9.186)" fill="url(#linear-gradient-9)"/>
        <path id="Path_1134" data-name="Path 1134" d="M71.793,29.227a14.46,14.46,0,0,0-1.563-.8,3.9,3.9,0,0,0-3.079.217c-.447.313-3.234,2.047-3.766,3.164l-1.443.761,1.529,2.369a7.719,7.719,0,0,1,1.658-.7,4.673,4.673,0,0,0,1.688-.139h0a12.051,12.051,0,0,0,3.758-2.017c-.743-.682-1.568.074-2.126.374a3.087,3.087,0,0,1,.408-.543c.906-.921,1.112-1.243,2.126-1.243S72.763,29.844,71.793,29.227Z" transform="translate(-9.648 -4.569)" fill="#fcd1a9"/>
        <path id="Path_1135" data-name="Path 1135" d="M59.772,33.983c.537-1.617-1.366-3.042-2.491-2.938-5.256,2.321-7.8,3.7-9.6,3.16-7.554-3.572-4.475,5.832,0,6.232C52.922,40.9,55.58,37.255,59.772,33.983ZM37.891,22.027c-3.8.843-8.567,3.3-5.394,10C34.658,36.612,37.891,22.027,37.891,22.027Z" transform="translate(-4.949 -3.618)" fill="#dc8b00"/>
        <path id="Path_1136" data-name="Path 1136" d="M38.524,66.81c7.447,4.224,17.556,2.681,18.947-3.26-5.067-17.21-6.21-28.653-6.09-35.637C48.1,25.349,45.3,23.068,42.9,22.52c-2.512-.569-5.836-1.008-7.3.435-4.569,6.237-3.375,17.023-4.518,33.282A14.183,14.183,0,0,0,38.524,66.81Z" transform="translate(-4.89 -3.612)" fill="url(#linear-gradient-18)"/>
        <path id="Path_1137" data-name="Path 1137" d="M40.947,19.425c1.267-1.213,1.649-3.168,1.864-5.38a10.93,10.93,0,0,1,.275-3.842C44.271,5.456,48.2,2.38,51.877,3.31s5.686,5.55,4.5,10.291a9.659,9.659,0,0,1-8.331,7.188c-.172.374.472.913,1.069,1.3-2.8.752-5.4-.734-6.785-1.5A2.941,2.941,0,0,1,40.947,19.425ZM73.705,34.092l1.069-.565a5.171,5.171,0,0,1,3.083-3.568c.464.708-.331,1.282-.979,1.943.782-.63,1.8-1.26,2.242-1.578a3.877,3.877,0,0,1,3.079-.217,14.467,14.467,0,0,1,1.563.8c.971.617.2,1.434-.82,1.434s-1.22.322-2.126,1.243-1.718,2.964-4.724,2.773a1.228,1.228,0,0,0-.674.256Z" transform="translate(-6.411 -0.708)" fill="#fcd1a9"/>
        <path id="Path_1138" data-name="Path 1138" d="M77.1,40.628c.537-1.617-1.366-3.042-2.491-2.938-5.256,2.321-7.8,3.7-9.6,3.16C57.45,37.277,55.831,30.6,53.954,28.841c-4.217-3.042-9.293,3.685-3.762,9.739,5.836,5.528,10.337,8.1,14.812,8.5C70.247,47.546,72.905,43.9,77.1,40.628Z" transform="translate(-7.462 -4.552)" fill="url(#linear-gradient-19)"/>
        <path id="Path_1139" data-name="Path 1139" d="M42.307,8.837h0A10.508,10.508,0,0,1,46.2,3.1C51.33-.346,53.434,0,53.928.788c5.51-.682,6.738,2.277,2.967,6.519-1.078,1.447-.593,5.45-2.5,6.037.223-.908-1.155-3.477-2.147.539-.107.435.193.6-.232,1.1s-2.6,1.486-4.093,2.386c-2.091,1.26-2.688-.5-5.518-.9a4.677,4.677,0,0,0-.09-2.729,13.272,13.272,0,0,1,0-4.9Z" transform="translate(-6.586 -0.264)" fill="#2f2f2f"/>
      </g>
    </g>
    <g id="Group_14412" data-name="Group 14412" transform="translate(165.937 270.185)">
      <path id="Path_1140" data-name="Path 1140" d="M49.549,17.293c-5.526-3.165-14.46-3.165-19.969,0-4.884,2.809-5.4,7.182-1.554,10.322a12.07,12.07,0,0,1,1.554-1.067c5.5-3.161,14.43-3.161,19.969,0a11.511,11.511,0,0,1,1.619,1.11C55.037,24.514,54.494,20.118,49.549,17.293Z" transform="translate(-4.081 -2.661)" fill="url(#linear-gradient-20)"/>
      <path id="Path_1141" data-name="Path 1141" d="M52.3,2.776a1.347,1.347,0,0,0-.122.551l-.026,9.307a1.313,1.313,0,0,1,.122-.555l.477-1.024.026-9.311Zm-25.079,0L26.74,1.744l-.026,9.311.486,1.024a1.345,1.345,0,0,1,.13.581l.03-9.307a1.327,1.327,0,0,0-.135-.576ZM66.508,8.81a1.874,1.874,0,0,0-1.077,1.441v9.307A1.859,1.859,0,0,1,66.5,18.118l1.3-.753.026-9.307Z" transform="translate(-4.27 -0.63)" fill="#bbbfe2"/>
      <path id="Path_1142" data-name="Path 1142" d="M10.351,9.961l-1.3-.753-.026,9.307,1.3.753a1.9,1.9,0,0,1,1.09,1.458l.026-9.3A1.878,1.878,0,0,0,10.351,9.961Z" transform="translate(-1.543 -1.781)" fill="#ced2f4"/>
      <path id="Path_1143" data-name="Path 1143" d="M81.631,21.041c-1.137.176-2.635.766-2.635,1.966l-.03,9.307c0-1.2,1.5-1.789,2.644-1.965l1.8-.28.026-9.3Z" transform="translate(-12.325 -3.562)" fill="#bbbfe2"/>
      <path id="Path_1144" data-name="Path 1144" d="M79.031,24.575v9.32a6.82,6.82,0,0,1-.03.787l.03-9.3Z" transform="translate(-12.33 -4.15)" fill="#242d3c"/>
      <path id="Path_1145" data-name="Path 1145" d="M4.686,24.594v-1.54a1.72,1.72,0,0,0-1-1.462,5.08,5.08,0,0,0-1.676-.551l-1.8-.275-.03,9.3,1.8.28a5.014,5.014,0,0,1,1.676.551,1.81,1.81,0,0,1,.968,1.174v1.088a7.153,7.153,0,0,0,.039.916l.026-9.3C4.686,24.706,4.691,24.654,4.686,24.594Z" transform="translate(-0.18 -3.562)" fill="#ced2f4"/>
      <path id="Path_1146" data-name="Path 1146" d="M5.512,25.552l-.026,9.307v-.052l.026-9.3Z" transform="translate(-0.998 -4.293)" fill="#242d3c"/>
      <path id="Path_1147" data-name="Path 1147" d="M83.93,28.215l-.03,9.3-1.989,4.322.026-9.308Z" transform="translate(-12.779 -4.711)" fill="#bbbfe2"/>
      <path id="Path_1148" data-name="Path 1148" d="M2.3,32.533l-.026,9.308L.236,37.523l.026-9.308Z" transform="translate(-0.188 -4.711)" fill="#ced2f4"/>
      <path id="Path_1149" data-name="Path 1149" d="M78.7,32.977a4.861,4.861,0,0,0-4.046.985,19.369,19.369,0,0,1-1.493,1.488,1.479,1.479,0,0,0-.53,1.045L72.606,45.8a1.479,1.479,0,0,1,.53-1.045,19.367,19.367,0,0,0,1.493-1.488,4.858,4.858,0,0,1,4.046-.985l1.8.28.026-9.307Z" transform="translate(-11.345 -5.434)" fill="url(#linear-gradient-21)"/>
      <path id="Path_1150" data-name="Path 1150" d="M10.041,35.448a19.032,19.032,0,0,1-1.515-1.492,2.8,2.8,0,0,0-.638-.486,5.594,5.594,0,0,0-3.421-.495l-1.793.28-.026,9.307,1.793-.28a5.572,5.572,0,0,1,3.416.49,2.95,2.95,0,0,1,.642.49,18.934,18.934,0,0,0,1.511,1.492,1.475,1.475,0,0,1,.543,1.067l.03-9.307a1.5,1.5,0,0,0-.543-1.067Z" transform="translate(-0.56 -5.432)" fill="url(#linear-gradient-22)"/>
      <path id="Path_1151" data-name="Path 1151" d="M74.481,39.773l-.026,9.3-5.487,3.161.025-9.3Z" transform="translate(-10.784 -6.493)" fill="#bbbfe2"/>
      <path id="Path_1152" data-name="Path 1152" d="M14.729,42.934l-.03,9.3L9.177,49.076l.025-9.3Z" transform="translate(-1.567 -6.493)" fill="#ced2f4"/>
      <path id="Path_1153" data-name="Path 1153" d="M65.825,42.5a5.494,5.494,0,0,0-4.367-.31q-1.272.464-2.6.86c-1.393.43-1.823,1.148-1.823,1.75L57,54.11c0-.6.434-1.29,1.823-1.75q1.328-.391,2.6-.86a5.472,5.472,0,0,1,4.367.314l1.3.753.026-9.3Z" transform="translate(-8.939 -6.817)" fill="url(#linear-gradient-23)"/>
      <path id="Path_1154" data-name="Path 1154" d="M24.872,43.418A4.5,4.5,0,0,0,24,43.052q-1.3-.394-2.6-.86a5.49,5.49,0,0,0-4.371.314l-1.3.757-.03,9.3,1.3-.753a5.472,5.472,0,0,1,4.371-.314q1.272.473,2.6.86a4.491,4.491,0,0,1,.868.37,1.652,1.652,0,0,1,.99,1.406l.026-9.307A1.644,1.644,0,0,0,24.872,43.418Z" transform="translate(-2.571 -6.817)" fill="url(#linear-gradient-24)"/>
      <path id="Path_1155" data-name="Path 1155" d="M56.4,47.232l-.026,9.308L48.854,57.7l.026-9.307Z" transform="translate(-7.683 -7.642)" fill="#bbbfe2"/>
      <path id="Path_1156" data-name="Path 1156" d="M46.393,47.1a2.324,2.324,0,0,0-.964-.959,4.978,4.978,0,0,0-2.557-.563c-.994.021-2,.021-3,0-2.149,0-3.191.86-3.5,1.527L35.9,48.138l-.026,9.307.473-1.032c.313-.667,1.354-1.54,3.5-1.527q1.5.039,3,0a4.991,4.991,0,0,1,2.557.563,2.277,2.277,0,0,1,.964.959l.486,1.032.03-9.307Z" transform="translate(-5.682 -7.387)" fill="url(#linear-gradient-25)"/>
      <path id="Path_1157" data-name="Path 1157" d="M62.561,32.955l1.3.753-5.487,3.161-1.324-.757a5.494,5.494,0,0,0-4.367-.31q-1.272.464-2.6.86c-1.871.6-2.01,1.66-1.693,2.327l.486,1.028-7.514,1.157-.491-1.032a2.324,2.324,0,0,0-.964-.959,4.978,4.978,0,0,0-2.557-.563c-.994.021-2,.021-3,0-2.149,0-3.191.86-3.5,1.527l-.478,1.032-7.527-1.157.473-1.032c.252-.546.2-1.35-.868-1.957a4.5,4.5,0,0,0-.868-.366q-1.3-.394-2.6-.86a5.49,5.49,0,0,0-4.371.314l-1.3.757L7.781,33.716l1.3-.757c.868-.486,1.641-1.445.534-2.507A19.005,19.005,0,0,1,8.1,28.959a2.807,2.807,0,0,0-.638-.486,5.6,5.6,0,0,0-3.421-.495l-1.793.28-2.04-4.3,1.8-.275c1.159-.181,2.678-.783,2.644-2.017a10.837,10.837,0,0,1,0-1.72,1.72,1.72,0,0,0-1-1.462,5.08,5.08,0,0,0-1.676-.551l-1.8-.275,1.988-4.3,1.806.275a4.874,4.874,0,0,0,4.046-.976,19.373,19.373,0,0,1,1.489-1.5C10.6,10.1,9.8,9.136,8.949,8.65L7.646,7.9l5.487-3.161,1.324.753a5.472,5.472,0,0,0,4.367.314c.846-.314,1.715-.6,2.6-.86,1.871-.6,2.01-1.66,1.693-2.327l-.486-1.032L30.155.431l.482,1.028a2.29,2.29,0,0,0,.968.959,5.022,5.022,0,0,0,2.557.568c.994-.026,2-.026,3,0,2.144,0,3.2-.86,3.5-1.527L41.134.427l7.532,1.157-.477,1.032c-.247.542-.2,1.355.868,1.961a4.452,4.452,0,0,0,.868.366c.868.262,1.758.546,2.6.86A5.459,5.459,0,0,0,56.9,5.489l1.3-.753L63.72,7.9l-1.3.753c-.842.486-1.637,1.449-.53,2.512a18.834,18.834,0,0,1,1.506,1.488,2.95,2.95,0,0,0,.643.49,5.585,5.585,0,0,0,3.421.49l1.793-.275,2.04,4.3-1.8.275c-1.155.181-2.674.783-2.635,2.013a11.429,11.429,0,0,1,0,1.72,1.7,1.7,0,0,0,.994,1.462,5.075,5.075,0,0,0,1.68.551l1.8.275-1.993,4.3-1.8-.28a4.861,4.861,0,0,0-4.046.985,19.351,19.351,0,0,1-1.493,1.488C60.9,31.5,61.706,32.465,62.561,32.955ZM25.71,26.5c5.565,3.183,14.564,3.178,20.091,0s5.5-8.344-.061-11.531-14.564-3.187-20.1,0-5.5,8.352.069,11.535Z" transform="translate(-0.18 -0.427)" fill="#f0f0f5"/>
      <path id="Path_1158" data-name="Path 1158" d="M34.528,48.389,34.5,57.7,26.97,56.54,27,47.232Z" transform="translate(-4.31 -7.642)" fill="#ced2f4"/>
      <path id="Path_1159" data-name="Path 1159" d="M52.631,15.15c-7.814-4.477-20.494-4.482-28.282,0-3.707,2.15-5.643,4.9-5.8,7.7.152,2.83,2.11,5.643,5.886,7.8,7.836,4.486,20.5,4.477,28.282,0,3.712-2.15,5.643-4.9,5.8-7.7C58.365,20.131,56.408,17.322,52.631,15.15Zm-4.089,13.1c-5.487,3.161-14.421,3.165-19.969,0-2.6-1.5-3.994-3.441-4.146-5.393.156-1.935,1.515-3.845,4.081-5.325,5.5-3.161,14.43-3.161,19.969,0,2.6,1.5,4,3.441,4.15,5.393-.152,1.953-1.515,3.858-4.085,5.337Z" transform="translate(-3.012 -2.179)" fill="#e0e0eb"/>
      <path id="Path_1160" data-name="Path 1160" d="M24.347,15.014c7.788-4.482,20.451-4.477,28.282,0,3.777,2.15,5.735,4.963,5.891,7.789.178-3.075-1.784-6.185-5.891-8.533-7.814-4.482-20.494-4.486-28.282,0-4.037,2.322-5.96,5.393-5.8,8.438C18.716,19.926,20.657,17.165,24.347,15.014Z" transform="translate(-3.01 -2.043)" fill="url(#linear-gradient-26)"/>
    </g>
    <g id="Group_14413" data-name="Group 14413" transform="translate(269.176 435.006)">
      <path id="Path_1161" data-name="Path 1161" d="M30.054,29.415a8.311,8.311,0,0,1-7.52,0L1.784,17.463c-2.068-1.194-2.068-3.155,0-4.328L22.535,1.182a8.338,8.338,0,0,1,7.52,0L50.8,13.135c2.063,1.2,2.063,3.155,0,4.354Z" transform="translate(-0.233 -0.287)" fill="#f6f6fb"/>
      <path id="Path_1162" data-name="Path 1162" d="M1.785,20.2,22.536,32.15a8.312,8.312,0,0,0,7.52,0L50.806,20.2a2.774,2.774,0,0,0,1.532-1.973h0v6.491a1.916,1.916,0,0,1,0,.385h0a2.761,2.761,0,0,1-1.532,1.969L30.055,39.026a8.339,8.339,0,0,1-7.52,0L1.785,27.074A2.625,2.625,0,0,1,.239,24.858V18.025A2.629,2.629,0,0,0,1.785,20.2Z" transform="translate(-0.234 -3.021)" fill="url(#linear-gradient-27)"/>
      <path id="Path_1163" data-name="Path 1163" d="M25.754,15.871c-.376-1.069.2-2.276,1.727-3.163A8.9,8.9,0,0,1,35.54,12.5c2.124,1.229,1.956,3.319-.371,4.665a9.248,9.248,0,0,1-5.465,1c2.158,2.514,1.424,5.332-.863,6.651l-7.291-4.224-7.3-4.219C16.542,15.044,21.411,14.624,25.754,15.871Z" transform="translate(-2.395 -2.035)" fill="#37bdbd"/>
    </g>
  </g>
</svg>
