<svg xmlns="http://www.w3.org/2000/svg" width="24" height="24" viewBox="0 0 24 24">
  <g id="_Icons_23_Close" data-name="_Icons / 23 Close" transform="translate(2 2)">
    <g id="_23_Close" data-name="23 Close" transform="translate(0 0)" fill="#1d1d26">
      <path d="M 9.999899864196777 20.99979972839355 C 3.934529781341553 20.99979972839355 -1.00000011920929 16.06526947021484 -1.00000011920929 9.999899864196777 C -1.00000011920929 3.934529781341553 3.934529781341553 -1.00000011920929 9.999899864196777 -1.00000011920929 C 11.45168972015381 -1.00000011920929 12.86800003051758 -0.7182501554489136 14.2094898223877 -0.1625901311635971 C 15.55064964294434 0.3929198682308197 16.75131988525391 1.194989919662476 17.77813911437988 2.221329927444458 C 18.80499076843262 3.248179912567139 19.60724067687988 4.448929786682129 20.16275978088379 5.790380001068115 C 20.71817970275879 7.131579875946045 20.99979972839355 8.547869682312012 20.99979972839355 9.999899864196777 C 20.99979972839355 16.06526947021484 16.06526947021484 20.99979972839355 9.999899864196777 20.99979972839355 Z" stroke="none"/>
      <path d="M 9.999899864196777 19.99979972839355 C 15.51385974884033 19.99979972839355 19.99979972839355 15.51385974884033 19.99979972839355 9.999899864196777 C 19.99979972839355 8.679829597473145 19.7437801361084 7.392270088195801 19.23884963989258 6.172989845275879 C 18.73383903503418 4.95350980758667 18.00453948974609 3.861939907073975 17.07119941711426 2.928599834442139 C 16.13768005371094 1.995519876480103 15.04611015319824 1.266329884529114 13.82680988311768 0.7612898349761963 C 12.60725021362305 0.2561298608779907 11.31968975067139 -1.358032193365943e-07 9.999899864196777 -1.358032193365943e-07 C 4.485939979553223 -1.358032193365943e-07 -1.358032193365943e-07 4.485939979553223 -1.358032193365943e-07 9.999899864196777 C -1.358032193365943e-07 15.51385974884033 4.485939979553223 19.99979972839355 9.999899864196777 19.99979972839355 M 10.02060031890869 11.15820026397705 L 10.01988983154297 11.15892028808594 L 7.958699703216553 13.24170017242432 C 7.80312967300415 13.39727020263672 7.587939739227295 13.48649978637695 7.368299961090088 13.48649978637695 C 7.149230003356934 13.48649978637695 6.934370040893555 13.39727020263672 6.778800010681152 13.24170017242432 C 6.621520042419434 13.08351993560791 6.534899711608887 12.87415981292725 6.534899711608887 12.65219974517822 C 6.534899711608887 12.43255996704102 6.623799800872803 12.21768951416016 6.778800010681152 12.06270027160645 L 8.862299919128418 9.999899864196777 L 6.778800010681152 7.937099933624268 C 6.454189777374268 7.612499713897705 6.454189777374268 7.083600044250488 6.778800010681152 6.758100032806396 C 6.936369895935059 6.600529670715332 7.145879745483398 6.513750076293945 7.368750095367432 6.513750076293945 C 7.591619968414307 6.513750076293945 7.801139831542969 6.600529670715332 7.958699703216553 6.758100032806396 L 10.02060031890869 8.841599464416504 L 12.08339977264404 6.758100032806396 C 12.24096965789795 6.600529670715332 12.45032024383545 6.513750076293945 12.67290019989014 6.513750076293945 C 12.89548015594482 6.513750076293945 13.10482978820801 6.600529670715332 13.26239967346191 6.758100032806396 C 13.42012023925781 6.915829658508301 13.5068998336792 7.125509738922119 13.50675010681152 7.348519802093506 C 13.50659942626953 7.571089744567871 13.41981983184814 7.780119895935059 13.26239967346191 7.937099933624268 L 11.17889976501465 9.999899864196777 L 13.24170017242432 12.08339977264404 C 13.47999000549316 12.32258987426758 13.54994010925293 12.67904949188232 13.41989994049072 12.99149990081787 C 13.28981971740723 13.30313968658447 12.98775959014893 13.5044994354248 12.65040016174316 13.5044994354248 C 12.43342018127441 13.49364948272705 12.23205947875977 13.40032958984375 12.08339977264404 13.24170017242432 L 10.02060031890869 11.15820026397705 M 9.999899864196777 21.99979972839355 C 3.383129835128784 21.99979972839355 -2.000000238418579 16.61667060852051 -2.000000238418579 9.999899864196777 C -2.000000238418579 3.383129835128784 3.383129835128784 -2.000000238418579 9.999899864196777 -2.000000238418579 C 11.58368015289307 -2.000000238418579 13.12874984741211 -1.69264018535614 14.5921802520752 -1.086470127105713 C 16.05520057678223 -0.4804801344871521 17.36495971679688 0.3944698572158813 18.48508071899414 1.514049887657166 C 19.60544967651367 2.634419918060303 20.48064041137695 3.944349765777588 21.086669921875 5.407769680023193 C 21.69257926940918 6.870889663696289 21.99979972839355 8.415900230407715 21.99979972839355 9.999899864196777 C 21.99979972839355 16.61667060852051 16.61667060852051 21.99979972839355 9.999899864196777 21.99979972839355 Z" stroke="none" fill="#fff"/>
    </g>
  </g>
</svg>
