<svg xmlns="http://www.w3.org/2000/svg" width="45.252" height="31.713" viewBox="0 0 45.252 31.713">
  <g id="icon-1" transform="translate(-62.5 -81.3)">
    <path id="Path_854" data-name="Path 854" d="M62.5,83.4v21.829a2.14,2.14,0,0,0,2.136,2.136h13.1v2.57H75.569a3.552,3.552,0,0,0-3.439,2.534.391.391,0,0,0,.362.507H87.515a.375.375,0,0,0,.362-.507,3.63,3.63,0,0,0-3.439-2.534H82.266v-2.57h8.761v-3.331H64.636V83.472H91.027V81.3H64.636A2.109,2.109,0,0,0,62.5,83.4Zm17.522,21.54c.8,0,1.412.362,1.412.833s-.652.833-1.412.833c-.8,0-1.412-.362-1.412-.833S79.225,104.94,80.022,104.94Z" fill="#3365c1"/>
    <path id="Path_855" data-name="Path 855" d="M160.01,81.3h-13A1.012,1.012,0,0,0,146,82.314V112a1.012,1.012,0,0,0,1.014,1.014h13A1.012,1.012,0,0,0,161.024,112V82.277A.982.982,0,0,0,160.01,81.3Zm-6.516,28.165c-1.412,0-2.534-1.846-2.534-4.127s1.122-4.127,2.534-4.127,2.534,1.846,2.534,4.127S154.906,109.465,153.494,109.465Zm5.684-11.693H147.846V93.609h11.331Zm0-5.177H147.846V88.432h11.331Zm0-5.141H147.846v-4.2h11.331Z" transform="translate(-53.272)" fill="#3365c1"/>
    <circle id="Ellipse_76" data-name="Ellipse 76" cx="1.701" cy="1.701" r="1.701" transform="translate(98.52 103.6)" fill="#3365c1"/>
  </g>
</svg>
