<svg id="_15_-_Email" data-name="15 - Email" xmlns="http://www.w3.org/2000/svg" width="24.03" height="17.622" viewBox="0 0 24.03 17.622">
  <path id="Path_243" data-name="Path 243" d="M25.015,7.634a2.471,2.471,0,0,0-.7-1.729,2.379,2.379,0,0,0-1.7-.716H3.386a2.379,2.379,0,0,0-1.7.716,2.471,2.471,0,0,0-.7,1.729V20.366a2.471,2.471,0,0,0,.7,1.729,2.379,2.379,0,0,0,1.7.716H22.614a2.379,2.379,0,0,0,1.7-.716,2.471,2.471,0,0,0,.7-1.729V7.634Zm-1.6,0V20.366a.822.822,0,0,1-.234.576.793.793,0,0,1-.566.239H3.386a.793.793,0,0,1-.566-.239.822.822,0,0,1-.234-.576V7.634a.822.822,0,0,1,.234-.576.793.793,0,0,1,.566-.239H22.614a.793.793,0,0,1,.566.239.822.822,0,0,1,.234.576Z" transform="translate(-0.985 -5.189)" fill-rule="evenodd"/>
  <path id="Path_244" data-name="Path 244" d="M2.788,8.465l9.834,7.008a.636.636,0,0,0,.758,0l9.834-7.008a1.161,1.161,0,0,0,.3-1.36.7.7,0,0,0-1.06-.388L13,13.455,3.545,6.717a.7.7,0,0,0-1.06.388,1.161,1.161,0,0,0,.3,1.36Z" transform="translate(-0.985 -5.189)" fill-rule="evenodd"/>
</svg>
