<svg xmlns="http://www.w3.org/2000/svg" width="60" height="60" viewBox="0 0 60 60">
  <g id="Group_14395" data-name="Group 14395" transform="translate(-285 -326)">
    <rect id="Rectangle_6192" data-name="Rectangle 6192" width="60" height="60" rx="6" transform="translate(285 326)" fill="#f9ecff"/>
    <g id="_1630933-200" data-name="1630933-200" transform="translate(280.748 520.84)">
      <path id="Path_377" data-name="Path 377" d="M33.776-188.507a5.683,5.683,0,0,0-3.416,2.851,1.405,1.405,0,0,1-1.291.915,4.549,4.549,0,0,0-3.82,4.815,3.672,3.672,0,0,0,1.695,3.416c.753.484,1.372.538,4.977.538h4.089v3.389l-1.668.323c-2.34.43-4.008,1.345-4.573,2.475-.4.753-.484,1.668-.484,4.627v3.712H19.6v-2.636l3.12-.108,3.12-.081.78-.888a2.606,2.606,0,0,0,.78-2.1,2.431,2.431,0,0,0-.968-2.206,6.327,6.327,0,0,1-1.211-1.587,3.262,3.262,0,0,0-2.932-1.641,3.148,3.148,0,0,1-1.668-.43c-2.152-1.4-5.192-.834-6.349,1.184a1.9,1.9,0,0,1-1.318.942,4.109,4.109,0,0,0-2.636,2.932,3.319,3.319,0,0,0,1.318,3.416c.673.4,1.345.511,3.578.511h2.744l.081,2.071.081,2.1,5.542.081,5.515.054.484,1.076c.538,1.264,2.421,2.287,4.735,2.609l1.48.215.081,1.695.081,1.668H32.969c-4.008,0-3.954-.054-3.954,4.116,0,2.8-.081,3.282-.726,4.788L27.562-142l.619.484c.565.484,1.211.511,8.554.511a64.26,64.26,0,0,0,8.447-.269c.673-.377.646-.968-.161-2.8-.592-1.345-.673-1.883-.673-4.735,0-2.905-.054-3.228-.511-3.5a14.953,14.953,0,0,0-3.363-.269H37.623v-3.5h.888a7.855,7.855,0,0,0,4.627-1.722c.915-.888.942-.942.942-3.067v-2.179l4.25-.081,4.223-.081.081-2.905.081-2.878h1.937c2.421,0,3.174-.377,3.659-1.775a2.071,2.071,0,0,0-.135-2.152,3.487,3.487,0,0,0-1.318-1.453,10.3,10.3,0,0,1-1.8-1.426,3.564,3.564,0,0,0-4.439-.565,3.28,3.28,0,0,1-1.506.377c-.915,0-2.34.861-2.34,1.372a3,3,0,0,1-.807,1.1,2.506,2.506,0,0,0-.027,3.739c.753.726.915.78,2.959.78h2.179v4.3H44.079v-2.394c0-2.179-.054-2.475-.673-3.2a7.963,7.963,0,0,0-4.492-2.044l-1.291-.188v-3.47H41.47c4.17,0,5.165-.269,6.16-1.614a4.158,4.158,0,0,0-1.237-5.676c-.565-.323-.968-.78-.968-1.049,0-.7-1.184-2.018-2.152-2.421a5,5,0,0,0-2.071-.188,2.291,2.291,0,0,1-2.206-.646,6.478,6.478,0,0,0-2.179-1.022A4.111,4.111,0,0,0,33.776-188.507Zm3.712,2.475A3.075,3.075,0,0,1,38.7-183.5a1.8,1.8,0,0,0,.43,1.184c.915.942,1.722.3,1.722-1.372,0-1.13.027-1.157.915-1.157,1.157,0,1.614.565,1.426,1.722-.161,1.022.215,1.533,1.237,1.641.323.027.726.081.888.108.323.027.915,1.184.915,1.775a1.809,1.809,0,0,1-.538.942c-.511.511-.888.538-8.985.538-9.5,0-9.308.027-9.308-1.91a2.186,2.186,0,0,1,.7-1.775c.592-.592.861-.673,2.018-.565,1.533.161,2.125-.3,2.125-1.587C32.243-186.166,35.39-187.4,37.488-186.032Zm16.167,12.213c.215,1,.538,1.291,1.722,1.4.726.054.942.188.942.619,0,.511-.215.538-4.492.619-3.9.054-4.519,0-4.519-.35,0-.242.242-.4.565-.4.377,0,.646-.269.861-.78.3-.78.3-.78.592-.215.377.78,1.56.807,1.722.054.269-1.453.538-1.749,1.506-1.749C53.387-174.626,53.521-174.545,53.656-173.819Zm-34.245,2.636a2.815,2.815,0,0,1,.619,1.426c.188,1.076.646,1.426,1.48,1.184.511-.161.646-.565.565-1.56-.054-.377.108-.484.538-.4.511.054.619.242.565.915-.081.942.269,1.345,1.264,1.506.538.054.673.242.673.888v.807l-6.026.081c-6.349.081-6.752,0-6.752-1.157,0-.915.834-1.48,1.991-1.4,1.1.054,1.345-.161,1.641-1.506a1.531,1.531,0,0,1,1.022-1.13A2.072,2.072,0,0,1,19.411-171.183Zm16.6,1.775c0,.592.161.968.43,1.076.646.242,1.184-.323,1.184-1.237,0-.78.027-.807,1.157-.619,1.695.269,3.013.968,3.013,1.614,0,1.318-4.627,2.206-7.64,1.48-1.56-.377-2.771-1.184-2.556-1.749.188-.484,2.529-1.345,3.954-1.453C35.9-170.322,36.009-170.107,36.009-169.407Zm-2.287,3.282a12.942,12.942,0,0,0,6.564-.135l1.641-.511v1c0,1.184-.35,1.426-2.932,1.937a12.06,12.06,0,0,1-6.349-.538c-1.13-.484-1.211-.619-1.211-1.533,0-.834.081-.942.484-.78A15.044,15.044,0,0,0,33.722-166.125Zm-1.049,2.986c1.426.619,6.483.619,8.124,0l1.13-.43v.915c0,.834-.108.942-1.264,1.4-1.883.726-6.537.7-8.016-.054-.888-.43-1.1-.7-1.157-1.426C31.382-163.731,31.328-163.731,32.673-163.139ZM41.5-159.1c-1.533,1.1-6.4,1.345-8.528.4-1.157-.511-1.8-1.211-1.48-1.56a5.738,5.738,0,0,1,1.722.3,15.586,15.586,0,0,0,7.236-.081c1.318-.457,1.345-.43,1.426.054A.977.977,0,0,1,41.5-159.1Zm.7,10.976v2.287H31.167v-2.1a7.934,7.934,0,0,1,.188-2.287,42.18,42.18,0,0,1,5.515-.188H42.2Zm.484,4.035a4.13,4.13,0,0,1,.323.807c0,.081-2.771.135-6.187.135-4.2,0-6.187-.081-6.187-.3a2.789,2.789,0,0,1,.269-.807c.269-.484.619-.511,5.891-.511h5.6Z" transform="translate(0 0)" fill="#70398b"/>
    </g>
  </g>
</svg>
