<svg xmlns="http://www.w3.org/2000/svg" width="60" height="60" viewBox="0 0 60 60">
  <g id="Group_14391" data-name="Group 14391" transform="translate(-286 -326)">
    <rect id="Rectangle_6190" data-name="Rectangle 6190" width="60" height="60" rx="6" transform="translate(286 326)" fill="#cbf1f5"/>
    <g id="website-layout" transform="translate(299.066 339.676)">
      <path id="Path_375" data-name="Path 375" d="M2.058,0H31.814a2.066,2.066,0,0,1,1.46.61h0l0,0,0,0,0,0a2.068,2.068,0,0,1,.607,1.46v28.5a2.082,2.082,0,0,1-2.075,2.075H2.058A2.066,2.066,0,0,1,.6,32.038l0,0,0,0,0,0A2.068,2.068,0,0,1-.02,30.57V2.072A2.1,2.1,0,0,1,.593.607.752.752,0,0,1,.661.544,2.071,2.071,0,0,1,2.058,0Zm16.08,27.246a.861.861,0,0,1,0-1.716h9.717a.861.861,0,0,1,0,1.716Zm-12.408,0a.862.862,0,0,1,0-1.716h9.008a.862.862,0,0,1,0,1.716ZM5.418,23.5a.862.862,0,0,1,0-1.716h9.008a.862.862,0,0,1,0,1.716Zm12.719,0a.861.861,0,0,1,0-1.716h9.717a.861.861,0,0,1,0,1.716Zm-13.3-13.9H28.55v9.284H4.839V9.593ZM32.016,7.43a1.206,1.206,0,0,1-.2.017H2.058a1.158,1.158,0,0,1-.2-.017V30.568a.208.208,0,0,0,.055.141h0l0,0a.191.191,0,0,0,.141.055H31.814a.208.208,0,0,0,.2-.2V7.43Zm-18.2-4.754a1.346,1.346,0,1,1-1.346,1.346,1.346,1.346,0,0,1,1.346-1.346Zm-4.71,0A1.346,1.346,0,1,1,7.758,4.023,1.346,1.346,0,0,1,9.1,2.676Zm-4.707,0A1.346,1.346,0,1,1,3.051,4.023,1.346,1.346,0,0,1,4.4,2.676Z" fill="#0493a2" fill-rule="evenodd"/>
    </g>
  </g>
</svg>
