<svg xmlns="http://www.w3.org/2000/svg" width="60" height="60" viewBox="0 0 60 60">
  <g id="Group_14392" data-name="Group 14392" transform="translate(-1020 -326)">
    <rect id="Rectangle_6191" data-name="Rectangle 6191" width="60" height="60" rx="6" transform="translate(1020 326)" fill="#fae3d9"/>
    <g id="api" transform="translate(1028.001 339.989)">
      <path id="Path_376" data-name="Path 376" d="M35.48,2.442l.886,1.17a.7.7,0,0,1-.135.982l-.943.716a5.591,5.591,0,0,1,.326,1.439l1.074.145a.7.7,0,0,1,.6.79l-.2,1.453a.7.7,0,0,1-.791.6l-1.17-.16a5.667,5.667,0,0,1-.787,1.248l.656.861a.705.705,0,0,1-.135.985l-1.17.886a.705.705,0,0,1-.985-.135l-.716-.943a5.624,5.624,0,0,1-1.439.326l-.145,1.074a.7.7,0,0,1-.791.6l-1.453-.2a.7.7,0,0,1-.6-.79l.16-1.17a5.552,5.552,0,0,1-1.248-.79l-.861.656a.705.705,0,0,1-.985-.135l-.886-1.17a.7.7,0,0,1,.135-.982l.943-.716a5.591,5.591,0,0,1-.326-1.439L23.42,7.6a.7.7,0,0,1-.6-.79l.2-1.453a.7.7,0,0,1,.79-.6l1.17.16a5.552,5.552,0,0,1,.79-1.248l-.659-.861a.705.705,0,0,1,.135-.985l1.17-.886a.705.705,0,0,1,.985.135l.716.943a5.624,5.624,0,0,1,1.439-.326L29.7.617a.7.7,0,0,1,.79-.6l1.453.2a.7.7,0,0,1,.6.79l-.16,1.17a5.552,5.552,0,0,1,1.248.79l.861-.656a.7.7,0,0,1,.985.131ZM19.748,4.881,19.5,4.9a10.691,10.691,0,0,0-5.537,2.162,10.391,10.391,0,0,0-3.8,6.43l-.17.89-.886.156a12.206,12.206,0,0,0-2.325.627,7.778,7.778,0,0,0-1.762.943,5.844,5.844,0,0,0-1.067.993A6.018,6.018,0,0,0,2.6,21.039a7.115,7.115,0,0,0,1.343,4.087,6.679,6.679,0,0,0,1.12,1.205l.011.007-.95,2.527a7.814,7.814,0,0,1-.723-.539,9.154,9.154,0,0,1-1.56-1.673A9.705,9.705,0,0,1,0,21.046a8.61,8.61,0,0,1,1.957-5.619A8.374,8.374,0,0,1,3.495,14a10.372,10.372,0,0,1,2.354-1.258,14.241,14.241,0,0,1,1.95-.6A12.818,12.818,0,0,1,12.378,5a13.308,13.308,0,0,1,6.884-2.691,13.593,13.593,0,0,1,2.279-.032,3.433,3.433,0,0,0-.471.3l-.011.007a3.393,3.393,0,0,0-1.3,2.233l-.007.06Zm-4.2,26.1h-4.2l-.6,1.978H6.947l4.52-12.006h4.062l4.5,12.006H16.146l-.6-1.978Zm-.787-2.6-1.312-4.314L12.13,28.38Zm6.434-7.426h6.172a4.225,4.225,0,0,1,3.02.957,3.613,3.613,0,0,1,1,2.733,3.725,3.725,0,0,1-1.1,2.847,4.747,4.747,0,0,1-3.343,1.024H24.913V32.96H21.191V20.954Zm3.722,5.129h.915a2.345,2.345,0,0,0,1.517-.376,1.2,1.2,0,0,0,.436-.957,1.333,1.333,0,0,0-.379-.957,1.968,1.968,0,0,0-1.425-.393H24.913v2.683Zm7.972-5.129h3.722V32.96H32.885V20.954Zm6.82-9.7a9.225,9.225,0,0,1,1.088,1,10.349,10.349,0,0,1,1.074,1.382,11.68,11.68,0,0,1,1.691,6.352,10.431,10.431,0,0,1-1.861,6.1,9.391,9.391,0,0,1-.985,1.106V22.038a9.692,9.692,0,0,0,.238-2.067,9.027,9.027,0,0,0-1.273-4.913,7.356,7.356,0,0,0-.8-1.024,6.442,6.442,0,0,0-.727-.674c.025-.106.046-.213.06-.319a3.485,3.485,0,0,0,.025-.666,3.285,3.285,0,0,0,.8-.45l.011-.007a3.5,3.5,0,0,0,.656-.659ZM30.446,4.392A2.886,2.886,0,1,1,27.2,6.859a2.886,2.886,0,0,1,3.251-2.467Z" transform="translate(0 0)" fill="#f54a00" fill-rule="evenodd"/>
    </g>
  </g>
</svg>
