<svg xmlns="http://www.w3.org/2000/svg" width="60" height="60" viewBox="0 0 60 60">
  <g id="Group_14394" data-name="Group 14394" transform="translate(-286 -326)">
    <rect id="Rectangle_6193" data-name="Rectangle 6193" width="60" height="60" rx="6" transform="translate(286 326)" fill="#dcedff"/>
    <path id="cloud-files" d="M18.756,20.858h11.1a2.691,2.691,0,0,1,2.691,2.691V34.073a2.691,2.691,0,0,1-2.691,2.691h-11.1a2.691,2.691,0,0,1-2.691-2.691V23.541a2.691,2.691,0,0,1,2.691-2.691Zm6.5-12.428a.942.942,0,0,1,.685.9v1.582h2.347a2.039,2.039,0,0,1,1.459.6,2.066,2.066,0,0,1,.6,1.459v5.039H28.553V12.984a.286.286,0,0,0-.3-.293H25.942V18H24.055V10.467H16.211a.948.948,0,0,1-.96-.948V1.881H1.89V30.434h11.2v1.887H4.9v2.368a.286.286,0,0,0,.293.293H13.08v1.773H5.2a2.093,2.093,0,0,1-2.069-2.066V32.333H1.693a1.693,1.693,0,0,1-1.2-.493,1.675,1.675,0,0,1-.5-1.2V1.69A1.69,1.69,0,0,1,1.693,0H16.211a.924.924,0,0,1,.724.347l8.322,8.074ZM17.15,3.307,22.8,8.58H17.15ZM5.981,15.437a.613.613,0,0,0-.6.64.6.6,0,0,0,.6.637H17.045a.613.613,0,0,0,.6-.637.6.6,0,0,0-.6-.64Zm0,4.566a.638.638,0,0,0,0,1.274h7.087V20Zm0,4.563a.638.638,0,0,0,0,1.274h7.087V24.566Zm0-13.693a.637.637,0,0,0,0,1.274h6.546a.638.638,0,0,0,0-1.274Zm0-4.563a.6.6,0,0,0-.574.637.6.6,0,0,0,.574.637H9.569a.6.6,0,0,0,.571-.637.6.6,0,0,0-.571-.637ZM27.039,27.243a2.506,2.506,0,0,1,.395-.03,2.01,2.01,0,0,1,1.5.655,2.317,2.317,0,0,1,.251.323,2.706,2.706,0,0,1,.389,1.477,2.434,2.434,0,0,1-.434,1.417,2.207,2.207,0,0,1-.712.6,3.639,3.639,0,0,1-.96.359H20.933a2.392,2.392,0,0,1-.6-.156,2,2,0,0,1-.5-.3,2.216,2.216,0,0,1-.8-1.684,2,2,0,0,1,.452-1.307,2.093,2.093,0,0,1,.359-.329,2.267,2.267,0,0,1,.547-.3,3.453,3.453,0,0,1,.452-.138,2.99,2.99,0,0,1,1.062-1.657,3.888,3.888,0,0,1,1.812-.628,4.031,4.031,0,0,1,1.9.3,2.969,2.969,0,0,1,1.411,1.385Z" transform="translate(299.726 337.618)" fill="#0b3c85" fill-rule="evenodd"/>
  </g>
</svg>
