<svg xmlns="http://www.w3.org/2000/svg" width="60" height="60" viewBox="0 0 60 60">
  <g id="Group_14393" data-name="Group 14393" transform="translate(-285 -647)">
    <rect id="Rectangle_6194" data-name="Rectangle 6194" width="60" height="60" rx="6" transform="translate(285 647)" fill="#fceab5"/>
    <path id="time-late" d="M12.048,0A12.048,12.048,0,0,0,3.528,20.567a12.163,12.163,0,0,0,1.239,1.08c.447-.425.668-.631.861-.811l.143-.133a10.819,10.819,0,0,1-1.284-1.1A10.691,10.691,0,1,1,21.545,7.136a5.366,5.366,0,0,1,1.674.392A12.058,12.058,0,0,0,12.048,0ZM8,35.991c1.211-.112,4.585-.4,5.643-2.032.106-.165.99-1.629.99-1.637l3.643,1.388c.078.4-2.058,3.382-2.446,3.7a4.863,4.863,0,0,1-1.472.827A25.509,25.509,0,0,1,9.3,39.711Zm5.978-9.268a3.826,3.826,0,0,0,1.748,4.434,6.286,6.286,0,0,0,2.172.825l4.732,1.086c.282.064,5.9,4.615,6.432,5.07l2.428-2.187c.353-.317-5.6-5.572-6.64-6.087-4.927-2.443-5.135.351-3.28-6.7A9.172,9.172,0,0,0,25,25.807c2.174.555,3.387-.211,5.2-.8l2.687-.967-1.16-3.275-2.687.966c-.076.026-.268.1-.606.213-.838.2-1.578.735-2.109.479-1.758-.85-2.8-4.438-7.71-4.828-.738-.058-2.111-.244-3.182-.274-3.981-.231-5.338,1.261-7.518,3.5-1,.969-1.018.959-2.03,1.921l2.575,2.562c1.02-.969,1.042-.964,2.052-1.943A9.392,9.392,0,0,1,13,21.2a7.245,7.245,0,0,1,2.532-.119l-1.558,5.643ZM19.942,9.271a3.77,3.77,0,1,1-2.423,4.749,3.772,3.772,0,0,1,2.423-4.749ZM11.429,10.82a1.384,1.384,0,0,0-.571.538H8.915a.522.522,0,0,0-.8-.617l-1.154.89a.522.522,0,0,0-.2.41v.015a.517.517,0,0,0,.2.409l1.154.891a.522.522,0,0,0,.8-.617h1.943a1.375,1.375,0,1,0,1.955-1.832L12.8,8.248a.522.522,0,0,0,.616-.806L12.5,6.308a.521.521,0,0,0-.389-.193h-.012a.519.519,0,0,0-.431.213L10.8,7.5a.522.522,0,0,0,.614.794l.016,2.523Zm5.555-6.163a.579.579,0,1,0-1-.577l-.433.75a.579.579,0,1,0,1,.576ZM4.078,15.979a.58.58,0,0,0,.582,1l.749-.434a.58.58,0,1,0-.581-1Zm-.9-4.51a.579.579,0,1,0,0,1.157h.866a.579.579,0,0,0,0-1.158ZM4.657,7.112a.579.579,0,0,0-.577,1l.75.433a.579.579,0,1,0,.577-1l-.75-.433ZM8.117,4.078a.58.58,0,1,0-1,.582l.433.749a.58.58,0,1,0,1-.581Zm4.51-.9a.579.579,0,1,0-1.158,0v.866a.579.579,0,0,0,1.158,0V3.181Z" transform="translate(298.556 657.145)" fill="#674d00"/>
  </g>
</svg>
