<svg xmlns="http://www.w3.org/2000/svg" xmlns:xlink="http://www.w3.org/1999/xlink" width="100" height="100" viewBox="0 0 100 100">
  <defs>
    <filter id="Rectangle_11" x="0" y="0" width="100" height="100" filterUnits="userSpaceOnUse">
      <feOffset dy="6" input="SourceAlpha"/>
      <feGaussianBlur stdDeviation="6" result="blur"/>
      <feFlood flood-opacity="0.161"/>
      <feComposite operator="in" in2="blur"/>
      <feComposite in="SourceGraphic"/>
    </filter>
    <filter id="_12_Play_2" x="36" y="28" width="31.953" height="37.535" filterUnits="userSpaceOnUse">
      <feOffset dy="3" input="SourceAlpha"/>
      <feGaussianBlur stdDeviation="3" result="blur-2"/>
      <feFlood flood-opacity="0.161"/>
      <feComposite operator="in" in2="blur-2"/>
      <feComposite in="SourceGraphic"/>
    </filter>
  </defs>
  <g id="play-icon" transform="translate(-573 -324)">
    <g transform="matrix(1, 0, 0, 1, 573, 324)" filter="url(#Rectangle_11)">
      <rect id="Rectangle_11-2" data-name="Rectangle 11" width="64" height="64" rx="32" transform="translate(18 12)" fill="#5ca380" opacity="0.2"/>
    </g>
    <rect id="Rectangle_6188" data-name="Rectangle 6188" width="52" height="52" rx="26" transform="translate(597 342)" fill="#5ca380"/>
    <g transform="matrix(1, 0, 0, 1, 573, 324)" filter="url(#_12_Play_2)">
      <path id="_12_Play_2-2" data-name="12 Play_2" d="M2.233.279,13.4,8.651a1.4,1.4,0,0,1,0,2.233L2.233,19.256A1.4,1.4,0,0,1,0,18.135V1.391A1.4,1.4,0,0,1,2.233.279Z" transform="translate(45 34)" fill="#fff"/>
    </g>
  </g>
</svg>
